G04 DipTrace 3.3.1.3*
G04 Bottom.gbr*
%MOIN*%
G04 #@! TF.FileFunction,Copper,L2,Bot*
G04 #@! TF.Part,Single*
G04 #@! TA.AperFunction,Conductor*
%ADD13C,0.012*%
G04 #@! TA.AperFunction,CopperBalancing*
%ADD14C,0.02*%
%ADD15C,0.025*%
G04 #@! TA.AperFunction,ComponentPad*
%ADD32C,0.08*%
%ADD33C,0.14*%
G04 #@! TA.AperFunction,ViaPad*
%ADD35C,0.04*%
%FSLAX26Y26*%
G04*
G70*
G90*
G75*
G01*
G04 Bottom*
%LPD*%
X1562992Y968504D2*
D13*
X3838583D1*
X1377953Y835827D2*
X1506693D1*
X1657480Y685039D1*
X2046748D1*
X985827Y1148327D2*
D14*
X1105217Y1267717D1*
X1291339D1*
X1970079D1*
D35*
X1562992Y968504D3*
X3838583D3*
X1377953Y835827D3*
X2046748Y685039D3*
X1970079Y1267717D3*
D3*
X1291339D3*
X644940Y1313025D2*
D15*
X1278427D1*
X1304276D2*
X1957140D1*
X1982988D2*
X4079474D1*
X644940Y1288156D2*
X1071554D1*
X2014352D2*
X4079474D1*
X644940Y1263287D2*
X1046686D1*
X2018873D2*
X4079474D1*
X644940Y1238419D2*
X1021819D1*
X2008682D2*
X4079474D1*
X644940Y1213550D2*
X770415D1*
X801251D2*
X870387D1*
X901260D2*
X970396D1*
X1105154D2*
X1754646D1*
X1785518D2*
X1854655D1*
X1885491D2*
X1954664D1*
X1985500D2*
X2738913D1*
X2769749D2*
X2838886D1*
X2869759D2*
X2938895D1*
X2969768D2*
X3723144D1*
X3754017D2*
X3823154D1*
X3854026D2*
X3923163D1*
X3954000D2*
X4079474D1*
X644940Y1188681D2*
X730475D1*
X1080286D2*
X1714743D1*
X2025440D2*
X2698974D1*
X3009671D2*
X3683241D1*
X3993938D2*
X4079474D1*
X644940Y1163812D2*
X718669D1*
X1055419D2*
X1702900D1*
X2037245D2*
X2687168D1*
X3021478D2*
X3671436D1*
X4005744D2*
X4079474D1*
X644940Y1138944D2*
X717486D1*
X1054163D2*
X1701752D1*
X2038394D2*
X2686020D1*
X3022661D2*
X3670251D1*
X4006892D2*
X4079474D1*
X644940Y1114075D2*
X726348D1*
X1045335D2*
X1710580D1*
X2029567D2*
X2694848D1*
X3013833D2*
X3679079D1*
X3998066D2*
X4079474D1*
X644940Y1089206D2*
X752903D1*
X818762D2*
X852912D1*
X918772D2*
X952886D1*
X1018745D2*
X1737134D1*
X1802993D2*
X1837143D1*
X1903003D2*
X1937152D1*
X2003012D2*
X2721402D1*
X2787261D2*
X2821411D1*
X2887270D2*
X2921385D1*
X2987244D2*
X3705669D1*
X3771529D2*
X3805642D1*
X3871501D2*
X3905651D1*
X3971510D2*
X4079474D1*
X644940Y1064337D2*
X4079474D1*
X644940Y1039469D2*
X4079474D1*
X644940Y1014600D2*
X1554448D1*
X1571575D2*
X3830008D1*
X3847126D2*
X4079474D1*
X644940Y989731D2*
X1519138D1*
X3882446D2*
X4079474D1*
X644940Y964862D2*
X659066D1*
X725105D2*
X1046543D1*
X1112581D2*
X1514150D1*
X3887434D2*
X3999310D1*
X4065348D2*
X4079474D1*
X764362Y939993D2*
X1007322D1*
X1151839D2*
X1523766D1*
X3877818D2*
X3960051D1*
X781550Y915125D2*
X990097D1*
X1169028D2*
X1586887D1*
X1765818D2*
X1974365D1*
X2153295D2*
X2571118D1*
X2750049D2*
X2958596D1*
X3137526D2*
X3555386D1*
X3734316D2*
X3942864D1*
X789588Y890256D2*
X982059D1*
X1177066D2*
X1578849D1*
X1773820D2*
X1966327D1*
X2161298D2*
X2563080D1*
X2758087D2*
X2950558D1*
X3145564D2*
X3547348D1*
X3742354D2*
X3934825D1*
X790736Y865387D2*
X980911D1*
X1178214D2*
X1339573D1*
X1522667D2*
X1577665D1*
X1775004D2*
X1965142D1*
X2162482D2*
X2561932D1*
X2759272D2*
X2949409D1*
X3146749D2*
X3546164D1*
X3743503D2*
X3933640D1*
X785318Y840518D2*
X986329D1*
X1172795D2*
X1329202D1*
X1550441D2*
X1583083D1*
X1769585D2*
X1970560D1*
X2157063D2*
X2567350D1*
X2753818D2*
X2954828D1*
X3141331D2*
X3551583D1*
X3738084D2*
X3939096D1*
X771933Y815650D2*
X999714D1*
X1159411D2*
X1333580D1*
X1575308D2*
X1596469D1*
X1756201D2*
X1983945D1*
X2143678D2*
X2580735D1*
X2740432D2*
X2968213D1*
X3127945D2*
X3565003D1*
X3724699D2*
X3952480D1*
X744554Y790781D2*
X1027093D1*
X1132031D2*
X1363938D1*
X1391976D2*
X1503277D1*
X1600176D2*
X1623883D1*
X1728822D2*
X2011361D1*
X2116298D2*
X2608115D1*
X2713052D2*
X2995592D1*
X3100530D2*
X3592382D1*
X3697320D2*
X3979860D1*
X644940Y765912D2*
X1528144D1*
X1625045D2*
X4079474D1*
X644940Y741043D2*
X1553012D1*
X1649912D2*
X4079474D1*
X644940Y716175D2*
X1577881D1*
X2083787D2*
X4079474D1*
X644940Y691306D2*
X1602748D1*
X2095306D2*
X4079474D1*
X644940Y666437D2*
X1627615D1*
X2091861D2*
X4079474D1*
X644940Y641568D2*
X2027760D1*
X2065738D2*
X4079474D1*
X644940Y616699D2*
X4079474D1*
X644940Y591831D2*
X4079474D1*
X644940Y566962D2*
X4079474D1*
X644940Y542093D2*
X4079474D1*
X644940Y517224D2*
X4079474D1*
X644940Y492356D2*
X4079474D1*
X644940Y467487D2*
X4079474D1*
X644940Y442618D2*
X4079474D1*
X835823Y1104492D2*
X830752Y1099307D1*
X825072Y1094651D1*
X818912Y1090650D1*
X812348Y1087353D1*
X805461Y1084799D1*
X798333Y1083021D1*
X791054Y1082041D1*
X783711Y1081869D1*
X776394Y1082507D1*
X769192Y1083949D1*
X762192Y1086177D1*
X755480Y1089163D1*
X749140Y1092871D1*
X743247Y1097256D1*
X737874Y1102265D1*
X733085Y1107835D1*
X728941Y1113899D1*
X725491Y1120383D1*
X722777Y1127210D1*
X720832Y1134293D1*
X719681Y1141547D1*
X719337Y1148885D1*
X719804Y1156215D1*
X721077Y1163449D1*
X723140Y1170499D1*
X725969Y1177278D1*
X729526Y1183703D1*
X733773Y1189698D1*
X738654Y1195186D1*
X744110Y1200104D1*
X750076Y1204390D1*
X756478Y1207991D1*
X763238Y1210865D1*
X770273Y1212974D1*
X777499Y1214295D1*
X784825Y1214811D1*
X792165Y1214516D1*
X799428Y1213413D1*
X806524Y1211516D1*
X813367Y1208848D1*
X819874Y1205441D1*
X825966Y1201336D1*
X831568Y1196585D1*
X835827Y1192151D1*
X842643Y1198887D1*
X851085Y1205021D1*
X860382Y1209757D1*
X870304Y1212982D1*
X880610Y1214614D1*
X891043D1*
X901349Y1212982D1*
X911272Y1209757D1*
X920568Y1205021D1*
X929010Y1198887D1*
X935820Y1192123D1*
X942643Y1198887D1*
X951085Y1205021D1*
X960382Y1209757D1*
X970304Y1212982D1*
X980610Y1214614D1*
X991043D1*
X999289Y1213391D1*
X1081517Y1295466D1*
X1086150Y1298831D1*
X1091252Y1301430D1*
X1096698Y1303201D1*
X1102353Y1304096D1*
X1151148Y1304209D1*
X1262497D1*
X1267046Y1307357D1*
X1273547Y1310669D1*
X1280486Y1312924D1*
X1287690Y1314066D1*
X1294987D1*
X1302192Y1312924D1*
X1309130Y1310669D1*
X1315631Y1307357D1*
X1320088Y1304209D1*
X1941238D1*
X1945786Y1307357D1*
X1952287Y1310669D1*
X1959226Y1312924D1*
X1966430Y1314066D1*
X1973727D1*
X1980932Y1312924D1*
X1987870Y1310669D1*
X1994371Y1307357D1*
X2000273Y1303070D1*
X2005432Y1297911D1*
X2009719Y1292009D1*
X2013031Y1285508D1*
X2015286Y1278570D1*
X2016428Y1271365D1*
Y1264068D1*
X2015286Y1256864D1*
X2013031Y1249925D1*
X2009719Y1243424D1*
X2005432Y1237522D1*
X2000273Y1232364D1*
X1994371Y1228076D1*
X1987870Y1224764D1*
X1980932Y1222509D1*
X1973727Y1221367D1*
X1966430D1*
X1959226Y1222509D1*
X1952287Y1224764D1*
X1945786Y1228076D1*
X1941329Y1231224D1*
X1320180D1*
X1315631Y1228076D1*
X1309130Y1224764D1*
X1302192Y1222509D1*
X1294987Y1221367D1*
X1287690D1*
X1280486Y1222509D1*
X1273547Y1224764D1*
X1267046Y1228076D1*
X1262589Y1231224D1*
X1120350D1*
X1050915Y1161807D1*
X1052114Y1153543D1*
Y1143110D1*
X1050482Y1132804D1*
X1047257Y1122882D1*
X1042521Y1113585D1*
X1036387Y1105143D1*
X1029010Y1097766D1*
X1020568Y1091633D1*
X1011272Y1086896D1*
X1001349Y1083672D1*
X991043Y1082039D1*
X980610D1*
X970304Y1083672D1*
X960382Y1086896D1*
X951085Y1091633D1*
X942643Y1097766D1*
X935833Y1104530D1*
X929010Y1097766D1*
X920568Y1091633D1*
X911272Y1086896D1*
X901349Y1083672D1*
X891043Y1082039D1*
X880610D1*
X870304Y1083672D1*
X860382Y1086896D1*
X851085Y1091633D1*
X842643Y1097766D1*
X835833Y1104530D1*
X788281Y865756D2*
X787391Y858232D1*
X785912Y850801D1*
X783856Y843509D1*
X781234Y836400D1*
X778062Y829520D1*
X774360Y822909D1*
X770151Y816610D1*
X765459Y810660D1*
X760316Y805097D1*
X754753Y799954D1*
X748803Y795262D1*
X742504Y791054D1*
X735894Y787352D1*
X729013Y784180D1*
X721904Y781558D1*
X714613Y779501D1*
X707181Y778022D1*
X699657Y777133D1*
X692087Y776835D1*
X684516Y777133D1*
X676992Y778022D1*
X669560Y779501D1*
X662269Y781558D1*
X655160Y784180D1*
X648280Y787352D1*
X642419Y790634D1*
X642421Y433732D1*
X4082016Y433760D1*
X4081988Y790615D1*
X4076130Y787352D1*
X4069249Y784180D1*
X4062140Y781558D1*
X4054849Y779501D1*
X4047417Y778022D1*
X4039894Y777133D1*
X4032323Y776835D1*
X4024752Y777133D1*
X4017228Y778022D1*
X4009797Y779501D1*
X4002505Y781558D1*
X3995396Y784180D1*
X3988516Y787352D1*
X3981906Y791054D1*
X3975606Y795262D1*
X3969656Y799954D1*
X3964093Y805097D1*
X3958950Y810660D1*
X3954259Y816610D1*
X3950050Y822909D1*
X3946348Y829520D1*
X3943176Y836400D1*
X3940554Y843509D1*
X3938497Y850801D1*
X3937018Y858232D1*
X3936129Y865756D1*
X3935831Y873327D1*
X3936129Y880898D1*
X3937018Y888421D1*
X3938497Y895853D1*
X3940554Y903144D1*
X3943176Y910253D1*
X3946348Y917134D1*
X3950050Y923744D1*
X3954259Y930043D1*
X3958950Y935993D1*
X3964093Y941556D1*
X3969656Y946699D1*
X3975606Y951391D1*
X3981906Y955600D1*
X3988516Y959302D1*
X3995396Y962474D1*
X4002505Y965096D1*
X4009797Y967152D1*
X4017228Y968631D1*
X4024752Y969521D1*
X4032323Y969819D1*
X4039894Y969521D1*
X4047417Y968631D1*
X4054849Y967152D1*
X4062140Y965096D1*
X4069249Y962474D1*
X4076130Y959302D1*
X4081991Y956020D1*
X4081988Y1337921D1*
X642394Y1337894D1*
X642421Y956063D1*
X648280Y959302D1*
X655160Y962474D1*
X662269Y965096D1*
X669560Y967152D1*
X676992Y968631D1*
X684516Y969521D1*
X692087Y969819D1*
X699657Y969521D1*
X707181Y968631D1*
X714613Y967152D1*
X721904Y965096D1*
X729013Y962474D1*
X735894Y959302D1*
X742504Y955600D1*
X748803Y951391D1*
X754753Y946699D1*
X760316Y941556D1*
X765459Y935993D1*
X770151Y930043D1*
X774360Y923744D1*
X778062Y917134D1*
X781234Y910253D1*
X783856Y903144D1*
X785912Y895853D1*
X787391Y888421D1*
X788281Y880898D1*
X788579Y873327D1*
X788281Y865756D1*
X1175761D2*
X1174871Y858232D1*
X1173392Y850801D1*
X1171336Y843509D1*
X1168714Y836400D1*
X1165542Y829520D1*
X1161840Y822909D1*
X1157631Y816610D1*
X1152940Y810660D1*
X1147797Y805097D1*
X1142234Y799954D1*
X1136283Y795262D1*
X1129984Y791054D1*
X1123374Y787352D1*
X1116493Y784180D1*
X1109385Y781558D1*
X1102093Y779501D1*
X1094661Y778022D1*
X1087138Y777133D1*
X1079567Y776835D1*
X1071996Y777133D1*
X1064472Y778022D1*
X1057041Y779501D1*
X1049749Y781558D1*
X1042640Y784180D1*
X1035760Y787352D1*
X1029150Y791054D1*
X1022850Y795262D1*
X1016900Y799954D1*
X1011337Y805097D1*
X1006194Y810660D1*
X1001503Y816610D1*
X997294Y822909D1*
X993592Y829520D1*
X990420Y836400D1*
X987798Y843509D1*
X985741Y850801D1*
X984262Y858232D1*
X983373Y865756D1*
X983075Y873327D1*
X983373Y880898D1*
X984262Y888421D1*
X985741Y895853D1*
X987798Y903144D1*
X990420Y910253D1*
X993592Y917134D1*
X997294Y923744D1*
X1001503Y930043D1*
X1006194Y935993D1*
X1011337Y941556D1*
X1016900Y946699D1*
X1022850Y951391D1*
X1029150Y955600D1*
X1035760Y959302D1*
X1042640Y962474D1*
X1049749Y965096D1*
X1057041Y967152D1*
X1064472Y968631D1*
X1071996Y969521D1*
X1079567Y969819D1*
X1087138Y969521D1*
X1094661Y968631D1*
X1102093Y967152D1*
X1109385Y965096D1*
X1116493Y962474D1*
X1123374Y959302D1*
X1129984Y955600D1*
X1136283Y951391D1*
X1142234Y946699D1*
X1147797Y941556D1*
X1152940Y935993D1*
X1157631Y930043D1*
X1161840Y923744D1*
X1165542Y917134D1*
X1168714Y910253D1*
X1171336Y903144D1*
X1173392Y895853D1*
X1174871Y888421D1*
X1175761Y880898D1*
X1176059Y873327D1*
X1175761Y865756D1*
X1820075Y1104492D2*
X1815004Y1099307D1*
X1809324Y1094651D1*
X1803164Y1090650D1*
X1796600Y1087353D1*
X1789713Y1084799D1*
X1782585Y1083021D1*
X1775306Y1082041D1*
X1767963Y1081869D1*
X1760646Y1082507D1*
X1753444Y1083949D1*
X1746444Y1086177D1*
X1739732Y1089163D1*
X1733392Y1092871D1*
X1727499Y1097256D1*
X1722126Y1102265D1*
X1717337Y1107835D1*
X1713193Y1113899D1*
X1709743Y1120383D1*
X1707029Y1127210D1*
X1705084Y1134293D1*
X1703933Y1141547D1*
X1703589Y1148885D1*
X1704056Y1156215D1*
X1705329Y1163449D1*
X1707392Y1170499D1*
X1710220Y1177278D1*
X1713778Y1183703D1*
X1718025Y1189698D1*
X1722906Y1195186D1*
X1728362Y1200104D1*
X1734328Y1204390D1*
X1740730Y1207991D1*
X1747490Y1210865D1*
X1754525Y1212974D1*
X1761751Y1214295D1*
X1769077Y1214811D1*
X1776417Y1214516D1*
X1783680Y1213413D1*
X1790776Y1211516D1*
X1797619Y1208848D1*
X1804126Y1205441D1*
X1810218Y1201336D1*
X1815820Y1196585D1*
X1820079Y1192151D1*
X1826895Y1198887D1*
X1835337Y1205021D1*
X1844634Y1209757D1*
X1854556Y1212982D1*
X1864862Y1214614D1*
X1875295D1*
X1885601Y1212982D1*
X1895524Y1209757D1*
X1904820Y1205021D1*
X1913262Y1198887D1*
X1920072Y1192123D1*
X1926895Y1198887D1*
X1935337Y1205021D1*
X1944634Y1209757D1*
X1954556Y1212982D1*
X1964862Y1214614D1*
X1975295D1*
X1985601Y1212982D1*
X1995524Y1209757D1*
X2004820Y1205021D1*
X2013262Y1198887D1*
X2020639Y1191510D1*
X2026773Y1183068D1*
X2031509Y1173772D1*
X2034734Y1163849D1*
X2036366Y1153543D1*
Y1143110D1*
X2034734Y1132804D1*
X2031509Y1122882D1*
X2026773Y1113585D1*
X2020639Y1105143D1*
X2013262Y1097766D1*
X2004820Y1091633D1*
X1995524Y1086896D1*
X1985601Y1083672D1*
X1975295Y1082039D1*
X1964862D1*
X1954556Y1083672D1*
X1944634Y1086896D1*
X1935337Y1091633D1*
X1926895Y1097766D1*
X1920085Y1104530D1*
X1913262Y1097766D1*
X1904820Y1091633D1*
X1895524Y1086896D1*
X1885601Y1083672D1*
X1875295Y1082039D1*
X1864862D1*
X1854556Y1083672D1*
X1844634Y1086896D1*
X1835337Y1091633D1*
X1826895Y1097766D1*
X1820085Y1104530D1*
X1772533Y865756D2*
X1771643Y858232D1*
X1770164Y850801D1*
X1768108Y843509D1*
X1765486Y836400D1*
X1762314Y829520D1*
X1758612Y822909D1*
X1754403Y816610D1*
X1749711Y810660D1*
X1744568Y805097D1*
X1739005Y799954D1*
X1733055Y795262D1*
X1726756Y791054D1*
X1720146Y787352D1*
X1713265Y784180D1*
X1706156Y781558D1*
X1698865Y779501D1*
X1691433Y778022D1*
X1683909Y777133D1*
X1676339Y776835D1*
X1668768Y777133D1*
X1661244Y778022D1*
X1653812Y779501D1*
X1646521Y781558D1*
X1639412Y784180D1*
X1632531Y787352D1*
X1625921Y791054D1*
X1619622Y795262D1*
X1613672Y799954D1*
X1608109Y805097D1*
X1602966Y810660D1*
X1598274Y816610D1*
X1594066Y822909D1*
X1590364Y829520D1*
X1587192Y836400D1*
X1584570Y843509D1*
X1582513Y850801D1*
X1581034Y858232D1*
X1580144Y865756D1*
X1579846Y873327D1*
X1580144Y880898D1*
X1581034Y888421D1*
X1582513Y895853D1*
X1584570Y903144D1*
X1587192Y910253D1*
X1590364Y917134D1*
X1594066Y923744D1*
X1598274Y930043D1*
X1602986Y936016D1*
X1596215Y936012D1*
X1590319Y930891D1*
X1584100Y927079D1*
X1577360Y924287D1*
X1570265Y922584D1*
X1562992Y922012D1*
X1555719Y922584D1*
X1548625Y924287D1*
X1541885Y927079D1*
X1535665Y930891D1*
X1530117Y935629D1*
X1525379Y941177D1*
X1521567Y947396D1*
X1518776Y954136D1*
X1517072Y961231D1*
X1516500Y968504D1*
X1517072Y975777D1*
X1518776Y982871D1*
X1521567Y989612D1*
X1525379Y995831D1*
X1530117Y1001379D1*
X1535665Y1006117D1*
X1541885Y1009929D1*
X1548625Y1012720D1*
X1555719Y1014424D1*
X1562992Y1014996D1*
X1570265Y1014424D1*
X1577360Y1012720D1*
X1584100Y1009929D1*
X1590319Y1006117D1*
X1596226Y1000991D1*
X3805360Y1000996D1*
X3811256Y1006117D1*
X3817475Y1009929D1*
X3824215Y1012720D1*
X3831310Y1014424D1*
X3838583Y1014996D1*
X3845856Y1014424D1*
X3852950Y1012720D1*
X3859690Y1009929D1*
X3865909Y1006117D1*
X3871458Y1001379D1*
X3876196Y995831D1*
X3880008Y989612D1*
X3882799Y982871D1*
X3884503Y975777D1*
X3885075Y968504D1*
X3884503Y961231D1*
X3882799Y954136D1*
X3880008Y947396D1*
X3876196Y941177D1*
X3871458Y935629D1*
X3865909Y930891D1*
X3859690Y927079D1*
X3852950Y924287D1*
X3845856Y922584D1*
X3838583Y922012D1*
X3831310Y922584D1*
X3824215Y924287D1*
X3817475Y927079D1*
X3811256Y930891D1*
X3805349Y936017D1*
X3718215Y935993D1*
X3722907Y930043D1*
X3727115Y923744D1*
X3730818Y917134D1*
X3733990Y910253D1*
X3736612Y903144D1*
X3738668Y895853D1*
X3740147Y888421D1*
X3741037Y880898D1*
X3741335Y873327D1*
X3741037Y865756D1*
X3740147Y858232D1*
X3738668Y850801D1*
X3736612Y843509D1*
X3733990Y836400D1*
X3730818Y829520D1*
X3727115Y822909D1*
X3722907Y816610D1*
X3718215Y810660D1*
X3713072Y805097D1*
X3707509Y799954D1*
X3701559Y795262D1*
X3695260Y791054D1*
X3688650Y787352D1*
X3681769Y784180D1*
X3674660Y781558D1*
X3667369Y779501D1*
X3659937Y778022D1*
X3652413Y777133D1*
X3644843Y776835D1*
X3637272Y777133D1*
X3629748Y778022D1*
X3622316Y779501D1*
X3615025Y781558D1*
X3607916Y784180D1*
X3601035Y787352D1*
X3594425Y791054D1*
X3588126Y795262D1*
X3582176Y799954D1*
X3576613Y805097D1*
X3571470Y810660D1*
X3566778Y816610D1*
X3562570Y822909D1*
X3558867Y829520D1*
X3555696Y836400D1*
X3553073Y843509D1*
X3551017Y850801D1*
X3549538Y858232D1*
X3548648Y865756D1*
X3548350Y873327D1*
X3548648Y880898D1*
X3549538Y888421D1*
X3551017Y895853D1*
X3553073Y903144D1*
X3555696Y910253D1*
X3558867Y917134D1*
X3562570Y923744D1*
X3566778Y930043D1*
X3571490Y936016D1*
X3121444Y935993D1*
X3126135Y930043D1*
X3130344Y923744D1*
X3134046Y917134D1*
X3137218Y910253D1*
X3139840Y903144D1*
X3141896Y895853D1*
X3143375Y888421D1*
X3144265Y880898D1*
X3144563Y873327D1*
X3144265Y865756D1*
X3143375Y858232D1*
X3141896Y850801D1*
X3139840Y843509D1*
X3137218Y836400D1*
X3134046Y829520D1*
X3130344Y822909D1*
X3126135Y816610D1*
X3121444Y810660D1*
X3116301Y805097D1*
X3110738Y799954D1*
X3104787Y795262D1*
X3098488Y791054D1*
X3091878Y787352D1*
X3084997Y784180D1*
X3077888Y781558D1*
X3070597Y779501D1*
X3063165Y778022D1*
X3055642Y777133D1*
X3048071Y776835D1*
X3040500Y777133D1*
X3032976Y778022D1*
X3025545Y779501D1*
X3018253Y781558D1*
X3011144Y784180D1*
X3004264Y787352D1*
X2997654Y791054D1*
X2991354Y795262D1*
X2985404Y799954D1*
X2979841Y805097D1*
X2974698Y810660D1*
X2970007Y816610D1*
X2965798Y822909D1*
X2962096Y829520D1*
X2958924Y836400D1*
X2956302Y843509D1*
X2954245Y850801D1*
X2952766Y858232D1*
X2951877Y865756D1*
X2951579Y873327D1*
X2951877Y880898D1*
X2952766Y888421D1*
X2954245Y895853D1*
X2956302Y903144D1*
X2958924Y910253D1*
X2962096Y917134D1*
X2965798Y923744D1*
X2970007Y930043D1*
X2974718Y936016D1*
X2733963Y935993D1*
X2738655Y930043D1*
X2742864Y923744D1*
X2746566Y917134D1*
X2749738Y910253D1*
X2752360Y903144D1*
X2754416Y895853D1*
X2755895Y888421D1*
X2756785Y880898D1*
X2757083Y873327D1*
X2756785Y865756D1*
X2755895Y858232D1*
X2754416Y850801D1*
X2752360Y843509D1*
X2749738Y836400D1*
X2746566Y829520D1*
X2742864Y822909D1*
X2738655Y816610D1*
X2733963Y810660D1*
X2728820Y805097D1*
X2723257Y799954D1*
X2717307Y795262D1*
X2711008Y791054D1*
X2704398Y787352D1*
X2697517Y784180D1*
X2690408Y781558D1*
X2683117Y779501D1*
X2675685Y778022D1*
X2668161Y777133D1*
X2660591Y776835D1*
X2653020Y777133D1*
X2645496Y778022D1*
X2638064Y779501D1*
X2630773Y781558D1*
X2623664Y784180D1*
X2616783Y787352D1*
X2610173Y791054D1*
X2603874Y795262D1*
X2597924Y799954D1*
X2592361Y805097D1*
X2587218Y810660D1*
X2582526Y816610D1*
X2578318Y822909D1*
X2574615Y829520D1*
X2571444Y836400D1*
X2568822Y843509D1*
X2566765Y850801D1*
X2565286Y858232D1*
X2564396Y865756D1*
X2564098Y873327D1*
X2564396Y880898D1*
X2565286Y888421D1*
X2566765Y895853D1*
X2568822Y903144D1*
X2571444Y910253D1*
X2574615Y917134D1*
X2578318Y923744D1*
X2582526Y930043D1*
X2587238Y936016D1*
X2137192Y935993D1*
X2141883Y930043D1*
X2146092Y923744D1*
X2149794Y917134D1*
X2152966Y910253D1*
X2155588Y903144D1*
X2157644Y895853D1*
X2159123Y888421D1*
X2160013Y880898D1*
X2160311Y873327D1*
X2160013Y865756D1*
X2159123Y858232D1*
X2157644Y850801D1*
X2155588Y843509D1*
X2152966Y836400D1*
X2149794Y829520D1*
X2146092Y822909D1*
X2141883Y816610D1*
X2137192Y810660D1*
X2132049Y805097D1*
X2126486Y799954D1*
X2120535Y795262D1*
X2114236Y791054D1*
X2107626Y787352D1*
X2100745Y784180D1*
X2093636Y781558D1*
X2086345Y779501D1*
X2078913Y778022D1*
X2071390Y777133D1*
X2063819Y776835D1*
X2056248Y777133D1*
X2048724Y778022D1*
X2041293Y779501D1*
X2034001Y781558D1*
X2026892Y784180D1*
X2020012Y787352D1*
X2013402Y791054D1*
X2007102Y795262D1*
X2001152Y799954D1*
X1995589Y805097D1*
X1990446Y810660D1*
X1985755Y816610D1*
X1981546Y822909D1*
X1977844Y829520D1*
X1974672Y836400D1*
X1972050Y843509D1*
X1969993Y850801D1*
X1968514Y858232D1*
X1967625Y865756D1*
X1967327Y873327D1*
X1967625Y880898D1*
X1968514Y888421D1*
X1969993Y895853D1*
X1972050Y903144D1*
X1974672Y910253D1*
X1977844Y917134D1*
X1981546Y923744D1*
X1985755Y930043D1*
X1990466Y936016D1*
X1749711Y935993D1*
X1754403Y930043D1*
X1758612Y923744D1*
X1762314Y917134D1*
X1765486Y910253D1*
X1768108Y903144D1*
X1770164Y895853D1*
X1771643Y888421D1*
X1772533Y880898D1*
X1772831Y873327D1*
X1772533Y865756D1*
X2804327Y1104492D2*
X2799256Y1099307D1*
X2793576Y1094651D1*
X2787416Y1090650D1*
X2780852Y1087353D1*
X2773965Y1084799D1*
X2766837Y1083021D1*
X2759558Y1082041D1*
X2752215Y1081869D1*
X2744898Y1082507D1*
X2737696Y1083949D1*
X2730696Y1086177D1*
X2723984Y1089163D1*
X2717644Y1092871D1*
X2711751Y1097256D1*
X2706378Y1102265D1*
X2701589Y1107835D1*
X2697445Y1113899D1*
X2693995Y1120383D1*
X2691281Y1127210D1*
X2689336Y1134293D1*
X2688185Y1141547D1*
X2687841Y1148885D1*
X2688308Y1156215D1*
X2689581Y1163449D1*
X2691644Y1170499D1*
X2694472Y1177278D1*
X2698030Y1183703D1*
X2702277Y1189698D1*
X2707157Y1195186D1*
X2712614Y1200104D1*
X2718580Y1204390D1*
X2724982Y1207991D1*
X2731741Y1210865D1*
X2738777Y1212974D1*
X2746003Y1214295D1*
X2753329Y1214811D1*
X2760669Y1214516D1*
X2767932Y1213413D1*
X2775028Y1211516D1*
X2781871Y1208848D1*
X2788378Y1205441D1*
X2794470Y1201336D1*
X2800072Y1196585D1*
X2804331Y1192151D1*
X2811147Y1198887D1*
X2819589Y1205021D1*
X2828886Y1209757D1*
X2838808Y1212982D1*
X2849114Y1214614D1*
X2859547D1*
X2869853Y1212982D1*
X2879776Y1209757D1*
X2889072Y1205021D1*
X2897514Y1198887D1*
X2904324Y1192123D1*
X2911147Y1198887D1*
X2919589Y1205021D1*
X2928886Y1209757D1*
X2938808Y1212982D1*
X2949114Y1214614D1*
X2959547D1*
X2969853Y1212982D1*
X2979776Y1209757D1*
X2989072Y1205021D1*
X2997514Y1198887D1*
X3004891Y1191510D1*
X3011025Y1183068D1*
X3015761Y1173772D1*
X3018986Y1163849D1*
X3020618Y1153543D1*
Y1143110D1*
X3018986Y1132804D1*
X3015761Y1122882D1*
X3011025Y1113585D1*
X3004891Y1105143D1*
X2997514Y1097766D1*
X2989072Y1091633D1*
X2979776Y1086896D1*
X2969853Y1083672D1*
X2959547Y1082039D1*
X2949114D1*
X2938808Y1083672D1*
X2928886Y1086896D1*
X2919589Y1091633D1*
X2911147Y1097766D1*
X2904337Y1104530D1*
X2897514Y1097766D1*
X2889072Y1091633D1*
X2879776Y1086896D1*
X2869853Y1083672D1*
X2859547Y1082039D1*
X2849114D1*
X2838808Y1083672D1*
X2828886Y1086896D1*
X2819589Y1091633D1*
X2811147Y1097766D1*
X2804337Y1104530D1*
X3788579Y1104492D2*
X3783508Y1099307D1*
X3777828Y1094651D1*
X3771668Y1090650D1*
X3765104Y1087353D1*
X3758217Y1084799D1*
X3751089Y1083021D1*
X3743810Y1082041D1*
X3736467Y1081869D1*
X3729150Y1082507D1*
X3721948Y1083949D1*
X3714948Y1086177D1*
X3708236Y1089163D1*
X3701896Y1092871D1*
X3696003Y1097256D1*
X3690630Y1102265D1*
X3685841Y1107835D1*
X3681697Y1113899D1*
X3678247Y1120383D1*
X3675533Y1127210D1*
X3673588Y1134293D1*
X3672437Y1141547D1*
X3672093Y1148885D1*
X3672560Y1156215D1*
X3673833Y1163449D1*
X3675896Y1170499D1*
X3678724Y1177278D1*
X3682282Y1183703D1*
X3686529Y1189698D1*
X3691409Y1195186D1*
X3696866Y1200104D1*
X3702832Y1204390D1*
X3709234Y1207991D1*
X3715993Y1210865D1*
X3723029Y1212974D1*
X3730255Y1214295D1*
X3737581Y1214811D1*
X3744921Y1214516D1*
X3752184Y1213413D1*
X3759280Y1211516D1*
X3766123Y1208848D1*
X3772630Y1205441D1*
X3778722Y1201336D1*
X3784324Y1196585D1*
X3788583Y1192151D1*
X3795399Y1198887D1*
X3803841Y1205021D1*
X3813138Y1209757D1*
X3823060Y1212982D1*
X3833366Y1214614D1*
X3843799D1*
X3854105Y1212982D1*
X3864028Y1209757D1*
X3873324Y1205021D1*
X3881766Y1198887D1*
X3888576Y1192123D1*
X3895399Y1198887D1*
X3903841Y1205021D1*
X3913138Y1209757D1*
X3923060Y1212982D1*
X3933366Y1214614D1*
X3943799D1*
X3954105Y1212982D1*
X3964028Y1209757D1*
X3973324Y1205021D1*
X3981766Y1198887D1*
X3989143Y1191510D1*
X3995277Y1183068D1*
X4000013Y1173772D1*
X4003238Y1163849D1*
X4004870Y1153543D1*
Y1143110D1*
X4003238Y1132804D1*
X4000013Y1122882D1*
X3995277Y1113585D1*
X3989143Y1105143D1*
X3981766Y1097766D1*
X3973324Y1091633D1*
X3964028Y1086896D1*
X3954105Y1083672D1*
X3943799Y1082039D1*
X3933366D1*
X3923060Y1083672D1*
X3913138Y1086896D1*
X3903841Y1091633D1*
X3895399Y1097766D1*
X3888589Y1104530D1*
X3881766Y1097766D1*
X3873324Y1091633D1*
X3864028Y1086896D1*
X3854105Y1083672D1*
X3843799Y1082039D1*
X3833366D1*
X3823060Y1083672D1*
X3813138Y1086896D1*
X3803841Y1091633D1*
X3795399Y1097766D1*
X3788589Y1104530D1*
X1411218Y868319D2*
X1509243Y868219D1*
X1514278Y867421D1*
X1519127Y865845D1*
X1523671Y863531D1*
X1527795Y860534D1*
X1575139Y813332D1*
X1670925Y717546D1*
X2013487Y717531D1*
X2019421Y722652D1*
X2025640Y726465D1*
X2032381Y729256D1*
X2039475Y730959D1*
X2046748Y731531D1*
X2054021Y730959D1*
X2061115Y729256D1*
X2067856Y726465D1*
X2074075Y722652D1*
X2079623Y717915D1*
X2084361Y712366D1*
X2088173Y706147D1*
X2090965Y699407D1*
X2092668Y692312D1*
X2093240Y685039D1*
X2092668Y677766D1*
X2090965Y670672D1*
X2088173Y663932D1*
X2084361Y657713D1*
X2079623Y652164D1*
X2074075Y647427D1*
X2067856Y643614D1*
X2061115Y640823D1*
X2054021Y639119D1*
X2046748Y638547D1*
X2039475Y639119D1*
X2032381Y640823D1*
X2025640Y643614D1*
X2019421Y647427D1*
X2013514Y652552D1*
X1654930Y652647D1*
X1649895Y653445D1*
X1645046Y655021D1*
X1640503Y657335D1*
X1636378Y660332D1*
X1589034Y707534D1*
X1493248Y803320D1*
X1411205Y803335D1*
X1405280Y798214D1*
X1399060Y794402D1*
X1392320Y791610D1*
X1385226Y789907D1*
X1377953Y789335D1*
X1370680Y789907D1*
X1363585Y791610D1*
X1356845Y794402D1*
X1350626Y798214D1*
X1345077Y802951D1*
X1340340Y808500D1*
X1336528Y814719D1*
X1333736Y821459D1*
X1332033Y828554D1*
X1331461Y835827D1*
X1332033Y843100D1*
X1333736Y850194D1*
X1336528Y856934D1*
X1340340Y863154D1*
X1345077Y868702D1*
X1350626Y873440D1*
X1356845Y877252D1*
X1363585Y880043D1*
X1370680Y881747D1*
X1377953Y882319D1*
X1385226Y881747D1*
X1392320Y880043D1*
X1399060Y877252D1*
X1405280Y873440D1*
X1411186Y868314D1*
X1941329Y1304209D2*
X1945786Y1307357D1*
X1952287Y1310669D1*
X1959226Y1312924D1*
X1966430Y1314066D1*
X1973727D1*
X1980932Y1312924D1*
X1987870Y1310669D1*
X1994371Y1307357D1*
X2000273Y1303070D1*
X2005432Y1297911D1*
X2009719Y1292009D1*
X2013031Y1285508D1*
X2015286Y1278570D1*
X2016428Y1271365D1*
Y1264068D1*
X2015286Y1256864D1*
X2013031Y1249925D1*
X2009719Y1243424D1*
X2005432Y1237522D1*
X2000273Y1232364D1*
X1994371Y1228076D1*
X1987870Y1224764D1*
X1980932Y1222509D1*
X1973727Y1221367D1*
X1966430D1*
X1959226Y1222509D1*
X1952287Y1224764D1*
X1945786Y1228076D1*
X1941329Y1231224D1*
X785827Y1214783D2*
D14*
Y1081870D1*
X719370Y1148327D2*
X785827D1*
X1770079Y1214783D2*
Y1081870D1*
X1703622Y1148327D2*
X1770079D1*
X2754331Y1214783D2*
Y1081870D1*
X2687874Y1148327D2*
X2754331D1*
X3738583Y1214783D2*
Y1081870D1*
X3672126Y1148327D2*
X3738583D1*
D32*
X785827D3*
X885827D3*
X985827D3*
D33*
X692087Y873327D3*
X1079567D3*
D32*
X1770079Y1148327D3*
X1870079D3*
X1970079D3*
D33*
X1676339Y873327D3*
X2063819D3*
D32*
X2754331Y1148327D3*
X2854331D3*
X2954331D3*
D33*
X2660591Y873327D3*
X3048071D3*
D32*
X3738583Y1148327D3*
X3838583D3*
X3938583D3*
D33*
X3644843Y873327D3*
X4032323D3*
M02*
