G04 DipTrace 3.3.1.3*
G04 BottomSilk.gbr*
%MOIN*%
G04 #@! TF.FileFunction,Legend,Bot*
G04 #@! TF.Part,Single*
%ADD10C,0.009843*%
%FSLAX26Y26*%
G04*
G70*
G90*
G75*
G01*
G04 BotSilk*
%LPD*%
X710756Y960855D2*
D10*
X711125Y1068332D1*
Y1069891D2*
X735811Y1070350D1*
X1035842Y1068791D2*
X1062111Y1068332D1*
X1062427Y960855D1*
X712655Y787535D2*
Y729807D1*
X1058999D1*
X1059315Y785838D1*
X1695008Y960855D2*
X1695377Y1068332D1*
Y1069891D2*
X1720063Y1070350D1*
X2020094Y1068791D2*
X2046363Y1068332D1*
X2046679Y960855D1*
X1696907Y787535D2*
Y729807D1*
X2043251D1*
X2043567Y785838D1*
X2679260Y960855D2*
X2679629Y1068332D1*
Y1069891D2*
X2704315Y1070350D1*
X3004346Y1068791D2*
X3030615Y1068332D1*
X3030931Y960855D1*
X2681159Y787535D2*
Y729807D1*
X3027502D1*
X3027819Y785838D1*
X3663512Y960855D2*
X3663881Y1068332D1*
Y1069891D2*
X3688567Y1070350D1*
X3988598Y1068791D2*
X4014867Y1068332D1*
X4015183Y960855D1*
X3665411Y787535D2*
Y729807D1*
X4011754D1*
X4012071Y785838D1*
M02*
