M48
INCH
T01C0.0191
T02C0.035
T03C0.0906
T04C0.1181
%
T01
X+015630Y+009685
X+013780Y+008358
X+012913Y+012677
X+019701Y+012677
X+020467Y+006850
X+038386Y+009685
T02
X+007858Y+011483
X+008858Y+011483
X+009858Y+011483
X+017701Y+011483
X+018701Y+011483
X+019701Y+011483
X+027543Y+011483
X+028543Y+011483
X+029543Y+011483
X+037386Y+011483
X+038386Y+011483
X+039386Y+011483
T03
X+006921Y+008733
X+010796Y+008733
X+016763Y+008733
X+020638Y+008733
X+026606Y+008733
X+030481Y+008733
X+036448Y+008733
X+040323Y+008733
T04
X+005118Y+005118
X+005118Y+012598
X+042126Y+012598
X+042126Y+005118
T00
M30
