<svg version="1.1" xmlns="http://www.w3.org/2000/svg" xmlns:xlink="http://www.w3.org/1999/xlink" stroke-linecap="round" stroke-linejoin="round" stroke-width="0" fill-rule="evenodd" clip-rule="evenodd" id="cb7afXDsBylwPzhdjrmW_bottom" viewBox="393.701 393.701 3937.008 984.252" width="3.9370079999999996in" height="0.9842519999999999in" class="w-100 h-100"><defs><style>.cb7afXDsBylwPzhdjrmW_fr4 {color: #666666;}
.cb7afXDsBylwPzhdjrmW_cu {color: #cccccc;}
.cb7afXDsBylwPzhdjrmW_cf {color: #cc9933;}
.cb7afXDsBylwPzhdjrmW_sm {color: #004200; opacity: 0.75;}
.cb7afXDsBylwPzhdjrmW_ss {color: #ffffff;}
.cb7afXDsBylwPzhdjrmW_sp {color: #999999;}
.cb7afXDsBylwPzhdjrmW_out {color: #000000;}</style><circle cx="0" cy="0" r="20" id="OMI-tbnYXnpujqg4LPKI_pad-35"/><circle cx="0" cy="0" r="40" id="OMI-tbnYXnpujqg4LPKI_pad-32"/><circle cx="0" cy="0" r="70" id="OMI-tbnYXnpujqg4LPKI_pad-33"/><circle cx="0" cy="0" r="43.937" id="VUF54rH6e4T-W79CFawr_pad-47"/><circle cx="0" cy="0" r="73.937" id="VUF54rH6e4T-W79CFawr_pad-45"/><circle cx="0" cy="0" r="59.055" id="VUF54rH6e4T-W79CFawr_pad-37"/><circle cx="0" cy="0" r="9.55" id="I0PJVIWSDOWmyzxJkMSl_pad-1"/><circle cx="0" cy="0" r="17.5" id="I0PJVIWSDOWmyzxJkMSl_pad-2"/><circle cx="0" cy="0" r="45.3" id="I0PJVIWSDOWmyzxJkMSl_pad-3"/><circle cx="0" cy="0" r="59.05" id="I0PJVIWSDOWmyzxJkMSl_pad-4"/><g id="cb7afXDsBylwPzhdjrmW_bottom_copper"><path d="M 1562.992 968.504 3838.583 968.504 M 1377.953 835.827 1506.693 835.827 1657.48 685.039 2046.748 685.039" fill="none" stroke-width="12"/><path d="M 985.827 1148.327 1105.217 1267.717 1291.339 1267.717 1970.079 1267.717" fill="none" stroke-width="20"/><use xlink:href="#OMI-tbnYXnpujqg4LPKI_pad-35" x="1562.992" y="968.504"/><use xlink:href="#OMI-tbnYXnpujqg4LPKI_pad-35" x="3838.583" y="968.504"/><use xlink:href="#OMI-tbnYXnpujqg4LPKI_pad-35" x="1377.953" y="835.827"/><use xlink:href="#OMI-tbnYXnpujqg4LPKI_pad-35" x="2046.748" y="685.039"/><use xlink:href="#OMI-tbnYXnpujqg4LPKI_pad-35" x="1970.079" y="1267.717"/><use xlink:href="#OMI-tbnYXnpujqg4LPKI_pad-35" x="1970.079" y="1267.717"/><use xlink:href="#OMI-tbnYXnpujqg4LPKI_pad-35" x="1291.339" y="1267.717"/><path d="M 644.94 1313.025 1278.427 1313.025 M 1304.276 1313.025 1957.14 1313.025 M 1982.988 1313.025 4079.474 1313.025 M 644.94 1288.156 1071.554 1288.156 M 2014.352 1288.156 4079.474 1288.156 M 644.94 1263.287 1046.686 1263.287 M 2018.873 1263.287 4079.474 1263.287 M 644.94 1238.419 1021.819 1238.419 M 2008.682 1238.419 4079.474 1238.419 M 644.94 1213.55 770.415 1213.55 M 801.251 1213.55 870.387 1213.55 M 901.26 1213.55 970.396 1213.55 M 1105.154 1213.55 1754.646 1213.55 M 1785.518 1213.55 1854.655 1213.55 M 1885.491 1213.55 1954.664 1213.55 M 1985.5 1213.55 2738.913 1213.55 M 2769.749 1213.55 2838.886 1213.55 M 2869.759 1213.55 2938.895 1213.55 M 2969.768 1213.55 3723.144 1213.55 M 3754.017 1213.55 3823.154 1213.55 M 3854.026 1213.55 3923.163 1213.55 M 3954 1213.55 4079.474 1213.55 M 644.94 1188.681 730.475 1188.681 M 1080.286 1188.681 1714.743 1188.681 M 2025.44 1188.681 2698.974 1188.681 M 3009.671 1188.681 3683.241 1188.681 M 3993.938 1188.681 4079.474 1188.681 M 644.94 1163.812 718.669 1163.812 M 1055.419 1163.812 1702.9 1163.812 M 2037.245 1163.812 2687.168 1163.812 M 3021.478 1163.812 3671.436 1163.812 M 4005.744 1163.812 4079.474 1163.812 M 644.94 1138.944 717.486 1138.944 M 1054.163 1138.944 1701.752 1138.944 M 2038.394 1138.944 2686.02 1138.944 M 3022.661 1138.944 3670.251 1138.944 M 4006.892 1138.944 4079.474 1138.944 M 644.94 1114.075 726.348 1114.075 M 1045.335 1114.075 1710.58 1114.075 M 2029.567 1114.075 2694.848 1114.075 M 3013.833 1114.075 3679.079 1114.075 M 3998.066 1114.075 4079.474 1114.075 M 644.94 1089.206 752.903 1089.206 M 818.762 1089.206 852.912 1089.206 M 918.772 1089.206 952.886 1089.206 M 1018.745 1089.206 1737.134 1089.206 M 1802.993 1089.206 1837.143 1089.206 M 1903.003 1089.206 1937.152 1089.206 M 2003.012 1089.206 2721.402 1089.206 M 2787.261 1089.206 2821.411 1089.206 M 2887.27 1089.206 2921.385 1089.206 M 2987.244 1089.206 3705.669 1089.206 M 3771.529 1089.206 3805.642 1089.206 M 3871.501 1089.206 3905.651 1089.206 M 3971.51 1089.206 4079.474 1089.206 M 644.94 1064.337 4079.474 1064.337 M 644.94 1039.469 4079.474 1039.469 M 644.94 1014.6 1554.448 1014.6 M 1571.575 1014.6 3830.008 1014.6 M 3847.126 1014.6 4079.474 1014.6 M 644.94 989.731 1519.138 989.731 M 3882.446 989.731 4079.474 989.731 M 644.94 964.862 659.066 964.862 M 725.105 964.862 1046.543 964.862 M 1112.581 964.862 1514.15 964.862 M 3887.434 964.862 3999.31 964.862 M 4065.348 964.862 4079.474 964.862 M 764.362 939.993 1007.322 939.993 M 1151.839 939.993 1523.766 939.993 M 3877.818 939.993 3960.051 939.993 M 781.55 915.125 990.097 915.125 M 1169.028 915.125 1586.887 915.125 M 1765.818 915.125 1974.365 915.125 M 2153.295 915.125 2571.118 915.125 M 2750.049 915.125 2958.596 915.125 M 3137.526 915.125 3555.386 915.125 M 3734.316 915.125 3942.864 915.125 M 789.588 890.256 982.059 890.256 M 1177.066 890.256 1578.849 890.256 M 1773.82 890.256 1966.327 890.256 M 2161.298 890.256 2563.08 890.256 M 2758.087 890.256 2950.558 890.256 M 3145.564 890.256 3547.348 890.256 M 3742.354 890.256 3934.825 890.256 M 790.736 865.387 980.911 865.387 M 1178.214 865.387 1339.573 865.387 M 1522.667 865.387 1577.665 865.387 M 1775.004 865.387 1965.142 865.387 M 2162.482 865.387 2561.932 865.387 M 2759.272 865.387 2949.409 865.387 M 3146.749 865.387 3546.164 865.387 M 3743.503 865.387 3933.64 865.387 M 785.318 840.518 986.329 840.518 M 1172.795 840.518 1329.202 840.518 M 1550.441 840.518 1583.083 840.518 M 1769.585 840.518 1970.56 840.518 M 2157.063 840.518 2567.35 840.518 M 2753.818 840.518 2954.828 840.518 M 3141.331 840.518 3551.583 840.518 M 3738.084 840.518 3939.096 840.518 M 771.933 815.65 999.714 815.65 M 1159.411 815.65 1333.58 815.65 M 1575.308 815.65 1596.469 815.65 M 1756.201 815.65 1983.945 815.65 M 2143.678 815.65 2580.735 815.65 M 2740.432 815.65 2968.213 815.65 M 3127.945 815.65 3565.003 815.65 M 3724.699 815.65 3952.48 815.65 M 744.554 790.781 1027.093 790.781 M 1132.031 790.781 1363.938 790.781 M 1391.976 790.781 1503.277 790.781 M 1600.176 790.781 1623.883 790.781 M 1728.822 790.781 2011.361 790.781 M 2116.298 790.781 2608.115 790.781 M 2713.052 790.781 2995.592 790.781 M 3100.53 790.781 3592.382 790.781 M 3697.32 790.781 3979.86 790.781 M 644.94 765.912 1528.144 765.912 M 1625.045 765.912 4079.474 765.912 M 644.94 741.043 1553.012 741.043 M 1649.912 741.043 4079.474 741.043 M 644.94 716.175 1577.881 716.175 M 2083.787 716.175 4079.474 716.175 M 644.94 691.306 1602.748 691.306 M 2095.306 691.306 4079.474 691.306 M 644.94 666.437 1627.615 666.437 M 2091.861 666.437 4079.474 666.437 M 644.94 641.568 2027.76 641.568 M 2065.738 641.568 4079.474 641.568 M 644.94 616.699 4079.474 616.699 M 644.94 591.831 4079.474 591.831 M 644.94 566.962 4079.474 566.962 M 644.94 542.093 4079.474 542.093 M 644.94 517.224 4079.474 517.224 M 644.94 492.356 4079.474 492.356 M 644.94 467.487 4079.474 467.487 M 644.94 442.618 4079.474 442.618 M 835.823 1104.492 830.752 1099.307 825.072 1094.651 818.912 1090.65 812.348 1087.353 805.461 1084.799 798.333 1083.021 791.054 1082.041 783.711 1081.869 776.394 1082.507 769.192 1083.949 762.192 1086.177 755.48 1089.163 749.14 1092.871 743.247 1097.256 737.874 1102.265 733.085 1107.835 728.941 1113.899 725.491 1120.383 722.777 1127.21 720.832 1134.293 719.681 1141.547 719.337 1148.885 719.804 1156.215 721.077 1163.449 723.14 1170.499 725.969 1177.278 729.526 1183.703 733.773 1189.698 738.654 1195.186 744.11 1200.104 750.076 1204.39 756.478 1207.991 763.238 1210.865 770.273 1212.974 777.499 1214.295 784.825 1214.811 792.165 1214.516 799.428 1213.413 806.524 1211.516 813.367 1208.848 819.874 1205.441 825.966 1201.336 831.568 1196.585 835.827 1192.151 842.643 1198.887 851.085 1205.021 860.382 1209.757 870.304 1212.982 880.61 1214.614 891.043 1214.614 901.349 1212.982 911.272 1209.757 920.568 1205.021 929.01 1198.887 935.82 1192.123 942.643 1198.887 951.085 1205.021 960.382 1209.757 970.304 1212.982 980.61 1214.614 991.043 1214.614 999.289 1213.391 1081.517 1295.466 1086.15 1298.831 1091.252 1301.43 1096.698 1303.201 1102.353 1304.096 1151.148 1304.209 1262.497 1304.209 1267.046 1307.357 1273.547 1310.669 1280.486 1312.924 1287.69 1314.066 1294.987 1314.066 1302.192 1312.924 1309.13 1310.669 1315.631 1307.357 1320.088 1304.209 1941.238 1304.209 1945.786 1307.357 1952.287 1310.669 1959.226 1312.924 1966.43 1314.066 1973.727 1314.066 1980.932 1312.924 1987.87 1310.669 1994.371 1307.357 2000.273 1303.07 2005.432 1297.911 2009.719 1292.009 2013.031 1285.508 2015.286 1278.57 2016.428 1271.365 2016.428 1264.068 2015.286 1256.864 2013.031 1249.925 2009.719 1243.424 2005.432 1237.522 2000.273 1232.364 1994.371 1228.076 1987.87 1224.764 1980.932 1222.509 1973.727 1221.367 1966.43 1221.367 1959.226 1222.509 1952.287 1224.764 1945.786 1228.076 1941.329 1231.224 1320.18 1231.224 1315.631 1228.076 1309.13 1224.764 1302.192 1222.509 1294.987 1221.367 1287.69 1221.367 1280.486 1222.509 1273.547 1224.764 1267.046 1228.076 1262.589 1231.224 1120.35 1231.224 1050.915 1161.807 1052.114 1153.543 1052.114 1143.11 1050.482 1132.804 1047.257 1122.882 1042.521 1113.585 1036.387 1105.143 1029.01 1097.766 1020.568 1091.633 1011.272 1086.896 1001.349 1083.672 991.043 1082.039 980.61 1082.039 970.304 1083.672 960.382 1086.896 951.085 1091.633 942.643 1097.766 935.833 1104.53 929.01 1097.766 920.568 1091.633 911.272 1086.896 901.349 1083.672 891.043 1082.039 880.61 1082.039 870.304 1083.672 860.382 1086.896 851.085 1091.633 842.643 1097.766 835.833 1104.53 M 788.281 865.756 787.391 858.232 785.912 850.801 783.856 843.509 781.234 836.4 778.062 829.52 774.36 822.909 770.151 816.61 765.459 810.66 760.316 805.097 754.753 799.954 748.803 795.262 742.504 791.054 735.894 787.352 729.013 784.18 721.904 781.558 714.613 779.501 707.181 778.022 699.657 777.133 692.087 776.835 684.516 777.133 676.992 778.022 669.56 779.501 662.269 781.558 655.16 784.18 648.28 787.352 642.419 790.634 642.421 433.732 4082.016 433.76 4081.988 790.615 4076.13 787.352 4069.249 784.18 4062.14 781.558 4054.849 779.501 4047.417 778.022 4039.894 777.133 4032.323 776.835 4024.752 777.133 4017.228 778.022 4009.797 779.501 4002.505 781.558 3995.396 784.18 3988.516 787.352 3981.906 791.054 3975.606 795.262 3969.656 799.954 3964.093 805.097 3958.95 810.66 3954.259 816.61 3950.05 822.909 3946.348 829.52 3943.176 836.4 3940.554 843.509 3938.497 850.801 3937.018 858.232 3936.129 865.756 3935.831 873.327 3936.129 880.898 3937.018 888.421 3938.497 895.853 3940.554 903.144 3943.176 910.253 3946.348 917.134 3950.05 923.744 3954.259 930.043 3958.95 935.993 3964.093 941.556 3969.656 946.699 3975.606 951.391 3981.906 955.6 3988.516 959.302 3995.396 962.474 4002.505 965.096 4009.797 967.152 4017.228 968.631 4024.752 969.521 4032.323 969.819 4039.894 969.521 4047.417 968.631 4054.849 967.152 4062.14 965.096 4069.249 962.474 4076.13 959.302 4081.991 956.02 4081.988 1337.921 642.394 1337.894 642.421 956.063 648.28 959.302 655.16 962.474 662.269 965.096 669.56 967.152 676.992 968.631 684.516 969.521 692.087 969.819 699.657 969.521 707.181 968.631 714.613 967.152 721.904 965.096 729.013 962.474 735.894 959.302 742.504 955.6 748.803 951.391 754.753 946.699 760.316 941.556 765.459 935.993 770.151 930.043 774.36 923.744 778.062 917.134 781.234 910.253 783.856 903.144 785.912 895.853 787.391 888.421 788.281 880.898 788.579 873.327 788.281 865.756 M 1175.761 865.756 1174.871 858.232 1173.392 850.801 1171.336 843.509 1168.714 836.4 1165.542 829.52 1161.84 822.909 1157.631 816.61 1152.94 810.66 1147.797 805.097 1142.234 799.954 1136.283 795.262 1129.984 791.054 1123.374 787.352 1116.493 784.18 1109.385 781.558 1102.093 779.501 1094.661 778.022 1087.138 777.133 1079.567 776.835 1071.996 777.133 1064.472 778.022 1057.041 779.501 1049.749 781.558 1042.64 784.18 1035.76 787.352 1029.15 791.054 1022.85 795.262 1016.9 799.954 1011.337 805.097 1006.194 810.66 1001.503 816.61 997.294 822.909 993.592 829.52 990.42 836.4 987.798 843.509 985.741 850.801 984.262 858.232 983.373 865.756 983.075 873.327 983.373 880.898 984.262 888.421 985.741 895.853 987.798 903.144 990.42 910.253 993.592 917.134 997.294 923.744 1001.503 930.043 1006.194 935.993 1011.337 941.556 1016.9 946.699 1022.85 951.391 1029.15 955.6 1035.76 959.302 1042.64 962.474 1049.749 965.096 1057.041 967.152 1064.472 968.631 1071.996 969.521 1079.567 969.819 1087.138 969.521 1094.661 968.631 1102.093 967.152 1109.385 965.096 1116.493 962.474 1123.374 959.302 1129.984 955.6 1136.283 951.391 1142.234 946.699 1147.797 941.556 1152.94 935.993 1157.631 930.043 1161.84 923.744 1165.542 917.134 1168.714 910.253 1171.336 903.144 1173.392 895.853 1174.871 888.421 1175.761 880.898 1176.059 873.327 1175.761 865.756 M 1820.075 1104.492 1815.004 1099.307 1809.324 1094.651 1803.164 1090.65 1796.6 1087.353 1789.713 1084.799 1782.585 1083.021 1775.306 1082.041 1767.963 1081.869 1760.646 1082.507 1753.444 1083.949 1746.444 1086.177 1739.732 1089.163 1733.392 1092.871 1727.499 1097.256 1722.126 1102.265 1717.337 1107.835 1713.193 1113.899 1709.743 1120.383 1707.029 1127.21 1705.084 1134.293 1703.933 1141.547 1703.589 1148.885 1704.056 1156.215 1705.329 1163.449 1707.392 1170.499 1710.22 1177.278 1713.778 1183.703 1718.025 1189.698 1722.906 1195.186 1728.362 1200.104 1734.328 1204.39 1740.73 1207.991 1747.49 1210.865 1754.525 1212.974 1761.751 1214.295 1769.077 1214.811 1776.417 1214.516 1783.68 1213.413 1790.776 1211.516 1797.619 1208.848 1804.126 1205.441 1810.218 1201.336 1815.82 1196.585 1820.079 1192.151 1826.895 1198.887 1835.337 1205.021 1844.634 1209.757 1854.556 1212.982 1864.862 1214.614 1875.295 1214.614 1885.601 1212.982 1895.524 1209.757 1904.82 1205.021 1913.262 1198.887 1920.072 1192.123 1926.895 1198.887 1935.337 1205.021 1944.634 1209.757 1954.556 1212.982 1964.862 1214.614 1975.295 1214.614 1985.601 1212.982 1995.524 1209.757 2004.82 1205.021 2013.262 1198.887 2020.639 1191.51 2026.773 1183.068 2031.509 1173.772 2034.734 1163.849 2036.366 1153.543 2036.366 1143.11 2034.734 1132.804 2031.509 1122.882 2026.773 1113.585 2020.639 1105.143 2013.262 1097.766 2004.82 1091.633 1995.524 1086.896 1985.601 1083.672 1975.295 1082.039 1964.862 1082.039 1954.556 1083.672 1944.634 1086.896 1935.337 1091.633 1926.895 1097.766 1920.085 1104.53 1913.262 1097.766 1904.82 1091.633 1895.524 1086.896 1885.601 1083.672 1875.295 1082.039 1864.862 1082.039 1854.556 1083.672 1844.634 1086.896 1835.337 1091.633 1826.895 1097.766 1820.085 1104.53 M 1772.533 865.756 1771.643 858.232 1770.164 850.801 1768.108 843.509 1765.486 836.4 1762.314 829.52 1758.612 822.909 1754.403 816.61 1749.711 810.66 1744.568 805.097 1739.005 799.954 1733.055 795.262 1726.756 791.054 1720.146 787.352 1713.265 784.18 1706.156 781.558 1698.865 779.501 1691.433 778.022 1683.909 777.133 1676.339 776.835 1668.768 777.133 1661.244 778.022 1653.812 779.501 1646.521 781.558 1639.412 784.18 1632.531 787.352 1625.921 791.054 1619.622 795.262 1613.672 799.954 1608.109 805.097 1602.966 810.66 1598.274 816.61 1594.066 822.909 1590.364 829.52 1587.192 836.4 1584.57 843.509 1582.513 850.801 1581.034 858.232 1580.144 865.756 1579.846 873.327 1580.144 880.898 1581.034 888.421 1582.513 895.853 1584.57 903.144 1587.192 910.253 1590.364 917.134 1594.066 923.744 1598.274 930.043 1602.986 936.016 1596.215 936.012 1590.319 930.891 1584.1 927.079 1577.36 924.287 1570.265 922.584 1562.992 922.012 1555.719 922.584 1548.625 924.287 1541.885 927.079 1535.665 930.891 1530.117 935.629 1525.379 941.177 1521.567 947.396 1518.776 954.136 1517.072 961.231 1516.5 968.504 1517.072 975.777 1518.776 982.871 1521.567 989.612 1525.379 995.831 1530.117 1001.379 1535.665 1006.117 1541.885 1009.929 1548.625 1012.72 1555.719 1014.424 1562.992 1014.996 1570.265 1014.424 1577.36 1012.72 1584.1 1009.929 1590.319 1006.117 1596.226 1000.991 3805.36 1000.996 3811.256 1006.117 3817.475 1009.929 3824.215 1012.72 3831.31 1014.424 3838.583 1014.996 3845.856 1014.424 3852.95 1012.72 3859.69 1009.929 3865.909 1006.117 3871.458 1001.379 3876.196 995.831 3880.008 989.612 3882.799 982.871 3884.503 975.777 3885.075 968.504 3884.503 961.231 3882.799 954.136 3880.008 947.396 3876.196 941.177 3871.458 935.629 3865.909 930.891 3859.69 927.079 3852.95 924.287 3845.856 922.584 3838.583 922.012 3831.31 922.584 3824.215 924.287 3817.475 927.079 3811.256 930.891 3805.349 936.017 3718.215 935.993 3722.907 930.043 3727.115 923.744 3730.818 917.134 3733.99 910.253 3736.612 903.144 3738.668 895.853 3740.147 888.421 3741.037 880.898 3741.335 873.327 3741.037 865.756 3740.147 858.232 3738.668 850.801 3736.612 843.509 3733.99 836.4 3730.818 829.52 3727.115 822.909 3722.907 816.61 3718.215 810.66 3713.072 805.097 3707.509 799.954 3701.559 795.262 3695.26 791.054 3688.65 787.352 3681.769 784.18 3674.66 781.558 3667.369 779.501 3659.937 778.022 3652.413 777.133 3644.843 776.835 3637.272 777.133 3629.748 778.022 3622.316 779.501 3615.025 781.558 3607.916 784.18 3601.035 787.352 3594.425 791.054 3588.126 795.262 3582.176 799.954 3576.613 805.097 3571.47 810.66 3566.778 816.61 3562.57 822.909 3558.867 829.52 3555.696 836.4 3553.073 843.509 3551.017 850.801 3549.538 858.232 3548.648 865.756 3548.35 873.327 3548.648 880.898 3549.538 888.421 3551.017 895.853 3553.073 903.144 3555.696 910.253 3558.867 917.134 3562.57 923.744 3566.778 930.043 3571.49 936.016 3121.444 935.993 3126.135 930.043 3130.344 923.744 3134.046 917.134 3137.218 910.253 3139.84 903.144 3141.896 895.853 3143.375 888.421 3144.265 880.898 3144.563 873.327 3144.265 865.756 3143.375 858.232 3141.896 850.801 3139.84 843.509 3137.218 836.4 3134.046 829.52 3130.344 822.909 3126.135 816.61 3121.444 810.66 3116.301 805.097 3110.738 799.954 3104.787 795.262 3098.488 791.054 3091.878 787.352 3084.997 784.18 3077.888 781.558 3070.597 779.501 3063.165 778.022 3055.642 777.133 3048.071 776.835 3040.5 777.133 3032.976 778.022 3025.545 779.501 3018.253 781.558 3011.144 784.18 3004.264 787.352 2997.654 791.054 2991.354 795.262 2985.404 799.954 2979.841 805.097 2974.698 810.66 2970.007 816.61 2965.798 822.909 2962.096 829.52 2958.924 836.4 2956.302 843.509 2954.245 850.801 2952.766 858.232 2951.877 865.756 2951.579 873.327 2951.877 880.898 2952.766 888.421 2954.245 895.853 2956.302 903.144 2958.924 910.253 2962.096 917.134 2965.798 923.744 2970.007 930.043 2974.718 936.016 2733.963 935.993 2738.655 930.043 2742.864 923.744 2746.566 917.134 2749.738 910.253 2752.36 903.144 2754.416 895.853 2755.895 888.421 2756.785 880.898 2757.083 873.327 2756.785 865.756 2755.895 858.232 2754.416 850.801 2752.36 843.509 2749.738 836.4 2746.566 829.52 2742.864 822.909 2738.655 816.61 2733.963 810.66 2728.82 805.097 2723.257 799.954 2717.307 795.262 2711.008 791.054 2704.398 787.352 2697.517 784.18 2690.408 781.558 2683.117 779.501 2675.685 778.022 2668.161 777.133 2660.591 776.835 2653.02 777.133 2645.496 778.022 2638.064 779.501 2630.773 781.558 2623.664 784.18 2616.783 787.352 2610.173 791.054 2603.874 795.262 2597.924 799.954 2592.361 805.097 2587.218 810.66 2582.526 816.61 2578.318 822.909 2574.615 829.52 2571.444 836.4 2568.822 843.509 2566.765 850.801 2565.286 858.232 2564.396 865.756 2564.098 873.327 2564.396 880.898 2565.286 888.421 2566.765 895.853 2568.822 903.144 2571.444 910.253 2574.615 917.134 2578.318 923.744 2582.526 930.043 2587.238 936.016 2137.192 935.993 2141.883 930.043 2146.092 923.744 2149.794 917.134 2152.966 910.253 2155.588 903.144 2157.644 895.853 2159.123 888.421 2160.013 880.898 2160.311 873.327 2160.013 865.756 2159.123 858.232 2157.644 850.801 2155.588 843.509 2152.966 836.4 2149.794 829.52 2146.092 822.909 2141.883 816.61 2137.192 810.66 2132.049 805.097 2126.486 799.954 2120.535 795.262 2114.236 791.054 2107.626 787.352 2100.745 784.18 2093.636 781.558 2086.345 779.501 2078.913 778.022 2071.39 777.133 2063.819 776.835 2056.248 777.133 2048.724 778.022 2041.293 779.501 2034.001 781.558 2026.892 784.18 2020.012 787.352 2013.402 791.054 2007.102 795.262 2001.152 799.954 1995.589 805.097 1990.446 810.66 1985.755 816.61 1981.546 822.909 1977.844 829.52 1974.672 836.4 1972.05 843.509 1969.993 850.801 1968.514 858.232 1967.625 865.756 1967.327 873.327 1967.625 880.898 1968.514 888.421 1969.993 895.853 1972.05 903.144 1974.672 910.253 1977.844 917.134 1981.546 923.744 1985.755 930.043 1990.466 936.016 1749.711 935.993 1754.403 930.043 1758.612 923.744 1762.314 917.134 1765.486 910.253 1768.108 903.144 1770.164 895.853 1771.643 888.421 1772.533 880.898 1772.831 873.327 1772.533 865.756 M 2804.327 1104.492 2799.256 1099.307 2793.576 1094.651 2787.416 1090.65 2780.852 1087.353 2773.965 1084.799 2766.837 1083.021 2759.558 1082.041 2752.215 1081.869 2744.898 1082.507 2737.696 1083.949 2730.696 1086.177 2723.984 1089.163 2717.644 1092.871 2711.751 1097.256 2706.378 1102.265 2701.589 1107.835 2697.445 1113.899 2693.995 1120.383 2691.281 1127.21 2689.336 1134.293 2688.185 1141.547 2687.841 1148.885 2688.308 1156.215 2689.581 1163.449 2691.644 1170.499 2694.472 1177.278 2698.03 1183.703 2702.277 1189.698 2707.157 1195.186 2712.614 1200.104 2718.58 1204.39 2724.982 1207.991 2731.741 1210.865 2738.777 1212.974 2746.003 1214.295 2753.329 1214.811 2760.669 1214.516 2767.932 1213.413 2775.028 1211.516 2781.871 1208.848 2788.378 1205.441 2794.47 1201.336 2800.072 1196.585 2804.331 1192.151 2811.147 1198.887 2819.589 1205.021 2828.886 1209.757 2838.808 1212.982 2849.114 1214.614 2859.547 1214.614 2869.853 1212.982 2879.776 1209.757 2889.072 1205.021 2897.514 1198.887 2904.324 1192.123 2911.147 1198.887 2919.589 1205.021 2928.886 1209.757 2938.808 1212.982 2949.114 1214.614 2959.547 1214.614 2969.853 1212.982 2979.776 1209.757 2989.072 1205.021 2997.514 1198.887 3004.891 1191.51 3011.025 1183.068 3015.761 1173.772 3018.986 1163.849 3020.618 1153.543 3020.618 1143.11 3018.986 1132.804 3015.761 1122.882 3011.025 1113.585 3004.891 1105.143 2997.514 1097.766 2989.072 1091.633 2979.776 1086.896 2969.853 1083.672 2959.547 1082.039 2949.114 1082.039 2938.808 1083.672 2928.886 1086.896 2919.589 1091.633 2911.147 1097.766 2904.337 1104.53 2897.514 1097.766 2889.072 1091.633 2879.776 1086.896 2869.853 1083.672 2859.547 1082.039 2849.114 1082.039 2838.808 1083.672 2828.886 1086.896 2819.589 1091.633 2811.147 1097.766 2804.337 1104.53 M 3788.579 1104.492 3783.508 1099.307 3777.828 1094.651 3771.668 1090.65 3765.104 1087.353 3758.217 1084.799 3751.089 1083.021 3743.81 1082.041 3736.467 1081.869 3729.15 1082.507 3721.948 1083.949 3714.948 1086.177 3708.236 1089.163 3701.896 1092.871 3696.003 1097.256 3690.63 1102.265 3685.841 1107.835 3681.697 1113.899 3678.247 1120.383 3675.533 1127.21 3673.588 1134.293 3672.437 1141.547 3672.093 1148.885 3672.56 1156.215 3673.833 1163.449 3675.896 1170.499 3678.724 1177.278 3682.282 1183.703 3686.529 1189.698 3691.409 1195.186 3696.866 1200.104 3702.832 1204.39 3709.234 1207.991 3715.993 1210.865 3723.029 1212.974 3730.255 1214.295 3737.581 1214.811 3744.921 1214.516 3752.184 1213.413 3759.28 1211.516 3766.123 1208.848 3772.63 1205.441 3778.722 1201.336 3784.324 1196.585 3788.583 1192.151 3795.399 1198.887 3803.841 1205.021 3813.138 1209.757 3823.06 1212.982 3833.366 1214.614 3843.799 1214.614 3854.105 1212.982 3864.028 1209.757 3873.324 1205.021 3881.766 1198.887 3888.576 1192.123 3895.399 1198.887 3903.841 1205.021 3913.138 1209.757 3923.06 1212.982 3933.366 1214.614 3943.799 1214.614 3954.105 1212.982 3964.028 1209.757 3973.324 1205.021 3981.766 1198.887 3989.143 1191.51 3995.277 1183.068 4000.013 1173.772 4003.238 1163.849 4004.87 1153.543 4004.87 1143.11 4003.238 1132.804 4000.013 1122.882 3995.277 1113.585 3989.143 1105.143 3981.766 1097.766 3973.324 1091.633 3964.028 1086.896 3954.105 1083.672 3943.799 1082.039 3933.366 1082.039 3923.06 1083.672 3913.138 1086.896 3903.841 1091.633 3895.399 1097.766 3888.589 1104.53 3881.766 1097.766 3873.324 1091.633 3864.028 1086.896 3854.105 1083.672 3843.799 1082.039 3833.366 1082.039 3823.06 1083.672 3813.138 1086.896 3803.841 1091.633 3795.399 1097.766 3788.589 1104.53 M 1411.218 868.319 1509.243 868.219 1514.278 867.421 1519.127 865.845 1523.671 863.531 1527.795 860.534 1575.139 813.332 1670.925 717.546 2013.487 717.531 2019.421 722.652 2025.64 726.465 2032.381 729.256 2039.475 730.959 2046.748 731.531 2054.021 730.959 2061.115 729.256 2067.856 726.465 2074.075 722.652 2079.623 717.915 2084.361 712.366 2088.173 706.147 2090.965 699.407 2092.668 692.312 2093.24 685.039 2092.668 677.766 2090.965 670.672 2088.173 663.932 2084.361 657.713 2079.623 652.164 2074.075 647.427 2067.856 643.614 2061.115 640.823 2054.021 639.119 2046.748 638.547 2039.475 639.119 2032.381 640.823 2025.64 643.614 2019.421 647.427 2013.514 652.552 1654.93 652.647 1649.895 653.445 1645.046 655.021 1640.503 657.335 1636.378 660.332 1589.034 707.534 1493.248 803.32 1411.205 803.335 1405.28 798.214 1399.06 794.402 1392.32 791.61 1385.226 789.907 1377.953 789.335 1370.68 789.907 1363.585 791.61 1356.845 794.402 1350.626 798.214 1345.077 802.951 1340.34 808.5 1336.528 814.719 1333.736 821.459 1332.033 828.554 1331.461 835.827 1332.033 843.1 1333.736 850.194 1336.528 856.934 1340.34 863.154 1345.077 868.702 1350.626 873.44 1356.845 877.252 1363.585 880.043 1370.68 881.747 1377.953 882.319 1385.226 881.747 1392.32 880.043 1399.06 877.252 1405.28 873.44 1411.186 868.314 M 1941.329 1304.209 1945.786 1307.357 1952.287 1310.669 1959.226 1312.924 1966.43 1314.066 1973.727 1314.066 1980.932 1312.924 1987.87 1310.669 1994.371 1307.357 2000.273 1303.07 2005.432 1297.911 2009.719 1292.009 2013.031 1285.508 2015.286 1278.57 2016.428 1271.365 2016.428 1264.068 2015.286 1256.864 2013.031 1249.925 2009.719 1243.424 2005.432 1237.522 2000.273 1232.364 1994.371 1228.076 1987.87 1224.764 1980.932 1222.509 1973.727 1221.367 1966.43 1221.367 1959.226 1222.509 1952.287 1224.764 1945.786 1228.076 1941.329 1231.224" fill="none" stroke-width="25"/><path d="M 785.827 1214.783 785.827 1081.87 M 719.37 1148.327 785.827 1148.327 M 1770.079 1214.783 1770.079 1081.87 M 1703.622 1148.327 1770.079 1148.327 M 2754.331 1214.783 2754.331 1081.87 M 2687.874 1148.327 2754.331 1148.327 M 3738.583 1214.783 3738.583 1081.87 M 3672.126 1148.327 3738.583 1148.327" fill="none" stroke-width="20"/><use xlink:href="#OMI-tbnYXnpujqg4LPKI_pad-32" x="785.827" y="1148.327"/><use xlink:href="#OMI-tbnYXnpujqg4LPKI_pad-32" x="885.827" y="1148.327"/><use xlink:href="#OMI-tbnYXnpujqg4LPKI_pad-32" x="985.827" y="1148.327"/><use xlink:href="#OMI-tbnYXnpujqg4LPKI_pad-33" x="692.087" y="873.327"/><use xlink:href="#OMI-tbnYXnpujqg4LPKI_pad-33" x="1079.567" y="873.327"/><use xlink:href="#OMI-tbnYXnpujqg4LPKI_pad-32" x="1770.079" y="1148.327"/><use xlink:href="#OMI-tbnYXnpujqg4LPKI_pad-32" x="1870.079" y="1148.327"/><use xlink:href="#OMI-tbnYXnpujqg4LPKI_pad-32" x="1970.079" y="1148.327"/><use xlink:href="#OMI-tbnYXnpujqg4LPKI_pad-33" x="1676.339" y="873.327"/><use xlink:href="#OMI-tbnYXnpujqg4LPKI_pad-33" x="2063.819" y="873.327"/><use xlink:href="#OMI-tbnYXnpujqg4LPKI_pad-32" x="2754.331" y="1148.327"/><use xlink:href="#OMI-tbnYXnpujqg4LPKI_pad-32" x="2854.331" y="1148.327"/><use xlink:href="#OMI-tbnYXnpujqg4LPKI_pad-32" x="2954.331" y="1148.327"/><use xlink:href="#OMI-tbnYXnpujqg4LPKI_pad-33" x="2660.591" y="873.327"/><use xlink:href="#OMI-tbnYXnpujqg4LPKI_pad-33" x="3048.071" y="873.327"/><use xlink:href="#OMI-tbnYXnpujqg4LPKI_pad-32" x="3738.583" y="1148.327"/><use xlink:href="#OMI-tbnYXnpujqg4LPKI_pad-32" x="3838.583" y="1148.327"/><use xlink:href="#OMI-tbnYXnpujqg4LPKI_pad-32" x="3938.583" y="1148.327"/><use xlink:href="#OMI-tbnYXnpujqg4LPKI_pad-33" x="3644.843" y="873.327"/><use xlink:href="#OMI-tbnYXnpujqg4LPKI_pad-33" x="4032.323" y="873.327"/></g><g id="cb7afXDsBylwPzhdjrmW_bottom_silkscreen"><path d="M 710.756 960.855 711.125 1068.332 M 711.125 1069.891 735.811 1070.35 M 1035.842 1068.791 1062.111 1068.332 1062.427 960.855 M 712.655 787.535 712.655 729.807 1058.999 729.807 1059.315 785.838 M 1695.008 960.855 1695.377 1068.332 M 1695.377 1069.891 1720.063 1070.35 M 2020.094 1068.791 2046.363 1068.332 2046.679 960.855 M 1696.907 787.535 1696.907 729.807 2043.251 729.807 2043.567 785.838 M 2679.26 960.855 2679.629 1068.332 M 2679.629 1069.891 2704.315 1070.35 M 3004.346 1068.791 3030.615 1068.332 3030.931 960.855 M 2681.159 787.535 2681.159 729.807 3027.502 729.807 3027.819 785.838 M 3663.512 960.855 3663.881 1068.332 M 3663.881 1069.891 3688.567 1070.35 M 3988.598 1068.791 4014.867 1068.332 4015.183 960.855 M 3665.411 787.535 3665.411 729.807 4011.754 729.807 4012.071 785.838" fill="none" stroke-width="9.843"/></g><g id="cb7afXDsBylwPzhdjrmW_bottom_soldermask"><use xlink:href="#VUF54rH6e4T-W79CFawr_pad-47" x="785.827" y="1148.327"/><use xlink:href="#VUF54rH6e4T-W79CFawr_pad-47" x="885.827" y="1148.327"/><use xlink:href="#VUF54rH6e4T-W79CFawr_pad-47" x="985.827" y="1148.327"/><use xlink:href="#VUF54rH6e4T-W79CFawr_pad-45" x="692.087" y="873.327"/><use xlink:href="#VUF54rH6e4T-W79CFawr_pad-45" x="1079.567" y="873.327"/><use xlink:href="#VUF54rH6e4T-W79CFawr_pad-47" x="1770.079" y="1148.327"/><use xlink:href="#VUF54rH6e4T-W79CFawr_pad-47" x="1870.079" y="1148.327"/><use xlink:href="#VUF54rH6e4T-W79CFawr_pad-47" x="1970.079" y="1148.327"/><use xlink:href="#VUF54rH6e4T-W79CFawr_pad-45" x="1676.339" y="873.327"/><use xlink:href="#VUF54rH6e4T-W79CFawr_pad-45" x="2063.819" y="873.327"/><use xlink:href="#VUF54rH6e4T-W79CFawr_pad-47" x="2754.331" y="1148.327"/><use xlink:href="#VUF54rH6e4T-W79CFawr_pad-47" x="2854.331" y="1148.327"/><use xlink:href="#VUF54rH6e4T-W79CFawr_pad-47" x="2954.331" y="1148.327"/><use xlink:href="#VUF54rH6e4T-W79CFawr_pad-45" x="2660.591" y="873.327"/><use xlink:href="#VUF54rH6e4T-W79CFawr_pad-45" x="3048.071" y="873.327"/><use xlink:href="#VUF54rH6e4T-W79CFawr_pad-47" x="3738.583" y="1148.327"/><use xlink:href="#VUF54rH6e4T-W79CFawr_pad-47" x="3838.583" y="1148.327"/><use xlink:href="#VUF54rH6e4T-W79CFawr_pad-47" x="3938.583" y="1148.327"/><use xlink:href="#VUF54rH6e4T-W79CFawr_pad-45" x="3644.843" y="873.327"/><use xlink:href="#VUF54rH6e4T-W79CFawr_pad-45" x="4032.323" y="873.327"/><use xlink:href="#VUF54rH6e4T-W79CFawr_pad-37" x="511.811" y="511.811"/><use xlink:href="#VUF54rH6e4T-W79CFawr_pad-37" x="511.811" y="1259.843"/><use xlink:href="#VUF54rH6e4T-W79CFawr_pad-37" x="4212.598" y="1259.843"/><use xlink:href="#VUF54rH6e4T-W79CFawr_pad-37" x="4212.598" y="511.811"/></g><g id="cb7afXDsBylwPzhdjrmW_bottom_drill1"><use xlink:href="#I0PJVIWSDOWmyzxJkMSl_pad-1" x="1563" y="968.5"/><use xlink:href="#I0PJVIWSDOWmyzxJkMSl_pad-1" x="1378" y="835.8"/><use xlink:href="#I0PJVIWSDOWmyzxJkMSl_pad-1" x="1291.3" y="1267.7"/><use xlink:href="#I0PJVIWSDOWmyzxJkMSl_pad-1" x="1970.1" y="1267.7"/><use xlink:href="#I0PJVIWSDOWmyzxJkMSl_pad-1" x="2046.7" y="685"/><use xlink:href="#I0PJVIWSDOWmyzxJkMSl_pad-1" x="3838.6" y="968.5"/><use xlink:href="#I0PJVIWSDOWmyzxJkMSl_pad-2" x="785.8" y="1148.3"/><use xlink:href="#I0PJVIWSDOWmyzxJkMSl_pad-2" x="885.8" y="1148.3"/><use xlink:href="#I0PJVIWSDOWmyzxJkMSl_pad-2" x="985.8" y="1148.3"/><use xlink:href="#I0PJVIWSDOWmyzxJkMSl_pad-2" x="1770.1" y="1148.3"/><use xlink:href="#I0PJVIWSDOWmyzxJkMSl_pad-2" x="1870.1" y="1148.3"/><use xlink:href="#I0PJVIWSDOWmyzxJkMSl_pad-2" x="1970.1" y="1148.3"/><use xlink:href="#I0PJVIWSDOWmyzxJkMSl_pad-2" x="2754.3" y="1148.3"/><use xlink:href="#I0PJVIWSDOWmyzxJkMSl_pad-2" x="2854.3" y="1148.3"/><use xlink:href="#I0PJVIWSDOWmyzxJkMSl_pad-2" x="2954.3" y="1148.3"/><use xlink:href="#I0PJVIWSDOWmyzxJkMSl_pad-2" x="3738.6" y="1148.3"/><use xlink:href="#I0PJVIWSDOWmyzxJkMSl_pad-2" x="3838.6" y="1148.3"/><use xlink:href="#I0PJVIWSDOWmyzxJkMSl_pad-2" x="3938.6" y="1148.3"/><use xlink:href="#I0PJVIWSDOWmyzxJkMSl_pad-3" x="692.1" y="873.3"/><use xlink:href="#I0PJVIWSDOWmyzxJkMSl_pad-3" x="1079.6" y="873.3"/><use xlink:href="#I0PJVIWSDOWmyzxJkMSl_pad-3" x="1676.3" y="873.3"/><use xlink:href="#I0PJVIWSDOWmyzxJkMSl_pad-3" x="2063.8" y="873.3"/><use xlink:href="#I0PJVIWSDOWmyzxJkMSl_pad-3" x="2660.6" y="873.3"/><use xlink:href="#I0PJVIWSDOWmyzxJkMSl_pad-3" x="3048.1" y="873.3"/><use xlink:href="#I0PJVIWSDOWmyzxJkMSl_pad-3" x="3644.8" y="873.3"/><use xlink:href="#I0PJVIWSDOWmyzxJkMSl_pad-3" x="4032.3" y="873.3"/><use xlink:href="#I0PJVIWSDOWmyzxJkMSl_pad-4" x="511.8" y="511.8"/><use xlink:href="#I0PJVIWSDOWmyzxJkMSl_pad-4" x="511.8" y="1259.8"/><use xlink:href="#I0PJVIWSDOWmyzxJkMSl_pad-4" x="4212.6" y="1259.8"/><use xlink:href="#I0PJVIWSDOWmyzxJkMSl_pad-4" x="4212.6" y="511.8"/></g><clipPath id="cb7afXDsBylwPzhdjrmW_bottom_outline"><path d="M 393.701 393.701 4330.709 393.701 4330.709 1377.953 393.701 1377.953 393.701 393.701" fill="none" stroke-width="5.512"/></clipPath><mask id="cb7afXDsBylwPzhdjrmW_bottom_mech-mask"><g fill="#000" stroke="#000"><rect x="393.701" y="393.701" width="3937.008" height="984.252" fill="#fff"/><use xlink:href="#cb7afXDsBylwPzhdjrmW_bottom_drill1"/></g></mask><mask id="cb7afXDsBylwPzhdjrmW_bottom_cf-mask"><g fill="#fff" stroke="#fff"><use xlink:href="#cb7afXDsBylwPzhdjrmW_bottom_soldermask"/></g></mask><mask id="cb7afXDsBylwPzhdjrmW_bottom_sm-mask"><g fill="#000" stroke="#000"><rect x="393.701" y="393.701" width="3937.008" height="984.252" fill="#fff"/><use xlink:href="#cb7afXDsBylwPzhdjrmW_bottom_soldermask"/></g></mask></defs><g transform="translate(0,1771.654) scale(1,-1)"><g mask="url(#cb7afXDsBylwPzhdjrmW_bottom_mech-mask)" clip-path="url(#cb7afXDsBylwPzhdjrmW_bottom_outline)" transform="translate(4724.41,0) scale(-1,1)"><rect x="393.701" y="393.701" width="3937.008" height="984.252" fill="currentColor" class="cb7afXDsBylwPzhdjrmW_fr4"/><use xlink:href="#cb7afXDsBylwPzhdjrmW_bottom_copper" fill="currentColor" stroke="currentColor" class="cb7afXDsBylwPzhdjrmW_cu"/><use xlink:href="#cb7afXDsBylwPzhdjrmW_bottom_copper" fill="currentColor" stroke="currentColor" class="cb7afXDsBylwPzhdjrmW_cf" mask="url(#cb7afXDsBylwPzhdjrmW_bottom_cf-mask)"/><g mask="url(#cb7afXDsBylwPzhdjrmW_bottom_sm-mask)"><rect x="393.701" y="393.701" width="3937.008" height="984.252" fill="currentColor" class="cb7afXDsBylwPzhdjrmW_sm"/><use xlink:href="#cb7afXDsBylwPzhdjrmW_bottom_silkscreen" fill="currentColor" stroke="currentColor" class="cb7afXDsBylwPzhdjrmW_ss"/></g></g></g></svg>