<svg version="1.1" xmlns="http://www.w3.org/2000/svg" xmlns:xlink="http://www.w3.org/1999/xlink" stroke-linecap="round" stroke-linejoin="round" stroke-width="0" fill-rule="evenodd" width="3.8188969999999998in" height="0.8661420000000001in" viewBox="452.756 452.756 3818.897 866.142" id="VUF54rH6e4T-W79CFawr"><defs><circle cx="0" cy="0" r="43.937" id="VUF54rH6e4T-W79CFawr_pad-47"/><circle cx="0" cy="0" r="73.937" id="VUF54rH6e4T-W79CFawr_pad-45"/><circle cx="0" cy="0" r="59.055" id="VUF54rH6e4T-W79CFawr_pad-37"/></defs><g transform="translate(0,1771.654) scale(1,-1)" fill="currentColor" stroke="currentColor"><use xlink:href="#VUF54rH6e4T-W79CFawr_pad-47" x="785.827" y="1148.327"/><use xlink:href="#VUF54rH6e4T-W79CFawr_pad-47" x="885.827" y="1148.327"/><use xlink:href="#VUF54rH6e4T-W79CFawr_pad-47" x="985.827" y="1148.327"/><use xlink:href="#VUF54rH6e4T-W79CFawr_pad-45" x="692.087" y="873.327"/><use xlink:href="#VUF54rH6e4T-W79CFawr_pad-45" x="1079.567" y="873.327"/><use xlink:href="#VUF54rH6e4T-W79CFawr_pad-47" x="1770.079" y="1148.327"/><use xlink:href="#VUF54rH6e4T-W79CFawr_pad-47" x="1870.079" y="1148.327"/><use xlink:href="#VUF54rH6e4T-W79CFawr_pad-47" x="1970.079" y="1148.327"/><use xlink:href="#VUF54rH6e4T-W79CFawr_pad-45" x="1676.339" y="873.327"/><use xlink:href="#VUF54rH6e4T-W79CFawr_pad-45" x="2063.819" y="873.327"/><use xlink:href="#VUF54rH6e4T-W79CFawr_pad-47" x="2754.331" y="1148.327"/><use xlink:href="#VUF54rH6e4T-W79CFawr_pad-47" x="2854.331" y="1148.327"/><use xlink:href="#VUF54rH6e4T-W79CFawr_pad-47" x="2954.331" y="1148.327"/><use xlink:href="#VUF54rH6e4T-W79CFawr_pad-45" x="2660.591" y="873.327"/><use xlink:href="#VUF54rH6e4T-W79CFawr_pad-45" x="3048.071" y="873.327"/><use xlink:href="#VUF54rH6e4T-W79CFawr_pad-47" x="3738.583" y="1148.327"/><use xlink:href="#VUF54rH6e4T-W79CFawr_pad-47" x="3838.583" y="1148.327"/><use xlink:href="#VUF54rH6e4T-W79CFawr_pad-47" x="3938.583" y="1148.327"/><use xlink:href="#VUF54rH6e4T-W79CFawr_pad-45" x="3644.843" y="873.327"/><use xlink:href="#VUF54rH6e4T-W79CFawr_pad-45" x="4032.323" y="873.327"/><use xlink:href="#VUF54rH6e4T-W79CFawr_pad-37" x="511.811" y="511.811"/><use xlink:href="#VUF54rH6e4T-W79CFawr_pad-37" x="511.811" y="1259.843"/><use xlink:href="#VUF54rH6e4T-W79CFawr_pad-37" x="4212.598" y="1259.843"/><use xlink:href="#VUF54rH6e4T-W79CFawr_pad-37" x="4212.598" y="511.811"/></g></svg>