<svg version="1.1" xmlns="http://www.w3.org/2000/svg" xmlns:xlink="http://www.w3.org/1999/xlink" stroke-linecap="round" stroke-linejoin="round" stroke-width="0" fill-rule="evenodd" width="3.31427in" height="0.35038600000000003in" viewBox="705.8345 724.8855 3314.27 350.386" id="OdkQPxDB8nc0_jidhZOG"><g transform="translate(0,1800.157) scale(1,-1)" fill="currentColor" stroke="currentColor"><path d="M 710.756 960.855 711.125 1068.332 M 711.125 1069.891 735.811 1070.35 M 1035.842 1068.791 1062.111 1068.332 1062.427 960.855 M 712.655 787.535 712.655 729.807 1058.999 729.807 1059.315 785.838 M 1695.008 960.855 1695.377 1068.332 M 1695.377 1069.891 1720.063 1070.35 M 2020.094 1068.791 2046.363 1068.332 2046.679 960.855 M 1696.907 787.535 1696.907 729.807 2043.251 729.807 2043.567 785.838 M 2679.26 960.855 2679.629 1068.332 M 2679.629 1069.891 2704.315 1070.35 M 3004.346 1068.791 3030.615 1068.332 3030.931 960.855 M 2681.159 787.535 2681.159 729.807 3027.502 729.807 3027.819 785.838 M 3663.512 960.855 3663.881 1068.332 M 3663.881 1069.891 3688.567 1070.35 M 3988.598 1068.791 4014.867 1068.332 4015.183 960.855 M 3665.411 787.535 3665.411 729.807 4011.754 729.807 4012.071 785.838" fill="none" stroke-width="9.843"/></g></svg>