<svg version="1.1" xmlns="http://www.w3.org/2000/svg" xmlns:xlink="http://www.w3.org/1999/xlink" stroke-linecap="round" stroke-linejoin="round" stroke-width="0" fill-rule="evenodd" width="3.8189in" height="0.8661in" viewBox="452.75 452.75 3818.9 866.1" id="I0PJVIWSDOWmyzxJkMSl"><defs><circle cx="0" cy="0" r="9.55" id="I0PJVIWSDOWmyzxJkMSl_pad-1"/><circle cx="0" cy="0" r="17.5" id="I0PJVIWSDOWmyzxJkMSl_pad-2"/><circle cx="0" cy="0" r="45.3" id="I0PJVIWSDOWmyzxJkMSl_pad-3"/><circle cx="0" cy="0" r="59.05" id="I0PJVIWSDOWmyzxJkMSl_pad-4"/></defs><g transform="translate(0,1771.6) scale(1,-1)" fill="currentColor" stroke="currentColor"><use xlink:href="#I0PJVIWSDOWmyzxJkMSl_pad-1" x="1563" y="968.5"/><use xlink:href="#I0PJVIWSDOWmyzxJkMSl_pad-1" x="1378" y="835.8"/><use xlink:href="#I0PJVIWSDOWmyzxJkMSl_pad-1" x="1291.3" y="1267.7"/><use xlink:href="#I0PJVIWSDOWmyzxJkMSl_pad-1" x="1970.1" y="1267.7"/><use xlink:href="#I0PJVIWSDOWmyzxJkMSl_pad-1" x="2046.7" y="685"/><use xlink:href="#I0PJVIWSDOWmyzxJkMSl_pad-1" x="3838.6" y="968.5"/><use xlink:href="#I0PJVIWSDOWmyzxJkMSl_pad-2" x="785.8" y="1148.3"/><use xlink:href="#I0PJVIWSDOWmyzxJkMSl_pad-2" x="885.8" y="1148.3"/><use xlink:href="#I0PJVIWSDOWmyzxJkMSl_pad-2" x="985.8" y="1148.3"/><use xlink:href="#I0PJVIWSDOWmyzxJkMSl_pad-2" x="1770.1" y="1148.3"/><use xlink:href="#I0PJVIWSDOWmyzxJkMSl_pad-2" x="1870.1" y="1148.3"/><use xlink:href="#I0PJVIWSDOWmyzxJkMSl_pad-2" x="1970.1" y="1148.3"/><use xlink:href="#I0PJVIWSDOWmyzxJkMSl_pad-2" x="2754.3" y="1148.3"/><use xlink:href="#I0PJVIWSDOWmyzxJkMSl_pad-2" x="2854.3" y="1148.3"/><use xlink:href="#I0PJVIWSDOWmyzxJkMSl_pad-2" x="2954.3" y="1148.3"/><use xlink:href="#I0PJVIWSDOWmyzxJkMSl_pad-2" x="3738.6" y="1148.3"/><use xlink:href="#I0PJVIWSDOWmyzxJkMSl_pad-2" x="3838.6" y="1148.3"/><use xlink:href="#I0PJVIWSDOWmyzxJkMSl_pad-2" x="3938.6" y="1148.3"/><use xlink:href="#I0PJVIWSDOWmyzxJkMSl_pad-3" x="692.1" y="873.3"/><use xlink:href="#I0PJVIWSDOWmyzxJkMSl_pad-3" x="1079.6" y="873.3"/><use xlink:href="#I0PJVIWSDOWmyzxJkMSl_pad-3" x="1676.3" y="873.3"/><use xlink:href="#I0PJVIWSDOWmyzxJkMSl_pad-3" x="2063.8" y="873.3"/><use xlink:href="#I0PJVIWSDOWmyzxJkMSl_pad-3" x="2660.6" y="873.3"/><use xlink:href="#I0PJVIWSDOWmyzxJkMSl_pad-3" x="3048.1" y="873.3"/><use xlink:href="#I0PJVIWSDOWmyzxJkMSl_pad-3" x="3644.8" y="873.3"/><use xlink:href="#I0PJVIWSDOWmyzxJkMSl_pad-3" x="4032.3" y="873.3"/><use xlink:href="#I0PJVIWSDOWmyzxJkMSl_pad-4" x="511.8" y="511.8"/><use xlink:href="#I0PJVIWSDOWmyzxJkMSl_pad-4" x="511.8" y="1259.8"/><use xlink:href="#I0PJVIWSDOWmyzxJkMSl_pad-4" x="4212.6" y="1259.8"/><use xlink:href="#I0PJVIWSDOWmyzxJkMSl_pad-4" x="4212.6" y="511.8"/></g></svg>