<svg version="1.1" xmlns="http://www.w3.org/2000/svg" xmlns:xlink="http://www.w3.org/1999/xlink" stroke-linecap="round" stroke-linejoin="round" stroke-width="0" fill-rule="evenodd" width="3.4802359999999997in" height="0.9291889999999999in" viewBox="622.087 421.232 3480.236 929.189" id="H4bRBrOtpk_HCkHk6Xzd"><defs><circle cx="0" cy="0" r="20" id="H4bRBrOtpk_HCkHk6Xzd_pad-35"/><rect x="-62.5985" y="-25" width="125.197" height="50" id="H4bRBrOtpk_HCkHk6Xzd_pad-31"/><circle cx="0" cy="0" r="40" id="H4bRBrOtpk_HCkHk6Xzd_pad-32"/><circle cx="0" cy="0" r="70" id="H4bRBrOtpk_HCkHk6Xzd_pad-33"/><rect x="-31.496" y="-35.433" width="62.992" height="70.866" id="H4bRBrOtpk_HCkHk6Xzd_pad-34"/></defs><g transform="translate(0,1771.653) scale(1,-1)" fill="currentColor" stroke="currentColor"><path d="M 3838.583 1148.327 3838.583 1036 M 1401.181 935.827 1530.315 935.827 1562.992 968.504 M 3838.583 968.504 3838.583 1036 M 1275.984 835.827 1377.953 835.827 M 2046.748 685.039 2641.732 685.039 2858.268 901.575 2858.268 1036 2858.268 1144.39 2854.331 1148.327 M 1401.181 735.827 1712.205 735.827 1870.079 893.701 1870.079 1033.688 1867.766 1036 M 1870.079 1148.327 1870.079 1038.312 1867.766 1036 M 885.827 1148.327 885.827 1038.479 888.312 1035.993 888.312 836.097 1086.614 637.795 1274.016 637.795 1275.984 635.827" fill="none" stroke-width="12"/><path d="M 1970.079 1267.717 2954.331 1267.717 3819.193 1267.717 3938.583 1148.327 M 2954.331 1148.327 2954.331 1267.717 M 1970.079 1148.327 1970.079 1267.717 M 1275.984 1035.827 1291.339 1035.827 1291.339 1267.717" fill="none" stroke-width="20"/><use xlink:href="#H4bRBrOtpk_HCkHk6Xzd_pad-35" x="1562.992" y="968.504"/><use xlink:href="#H4bRBrOtpk_HCkHk6Xzd_pad-35" x="3838.583" y="968.504"/><use xlink:href="#H4bRBrOtpk_HCkHk6Xzd_pad-35" x="1377.953" y="835.827"/><use xlink:href="#H4bRBrOtpk_HCkHk6Xzd_pad-35" x="2046.748" y="685.039"/><use xlink:href="#H4bRBrOtpk_HCkHk6Xzd_pad-35" x="1970.079" y="1267.717"/><use xlink:href="#H4bRBrOtpk_HCkHk6Xzd_pad-35" x="1970.079" y="1267.717"/><use xlink:href="#H4bRBrOtpk_HCkHk6Xzd_pad-35" x="1291.339" y="1267.717"/><path d="M 644.94 1313.025 1278.427 1313.025 M 1304.276 1313.025 1957.14 1313.025 M 1982.988 1313.025 4079.474 1313.025 M 644.94 1288.156 1247.064 1288.156 M 1335.602 1288.156 1925.814 1288.156 M 3852.878 1288.156 4079.474 1288.156 M 644.94 1263.287 1242.542 1263.287 M 1340.123 1263.287 1921.291 1263.287 M 3877.745 1263.287 4079.474 1263.287 M 644.94 1238.419 1252.339 1238.419 M 1330.327 1238.419 1931.088 1238.419 M 3902.613 1238.419 4079.474 1238.419 M 644.94 1213.55 770.415 1213.55 M 801.251 1213.55 870.387 1213.55 M 901.26 1213.55 970.396 1213.55 M 1001.269 1213.55 1252.339 1213.55 M 1330.327 1213.55 1754.646 1213.55 M 1785.518 1213.55 1854.655 1213.55 M 1885.491 1213.55 1931.088 1213.55 M 2009.076 1213.55 2738.913 1213.55 M 2769.749 1213.55 2838.886 1213.55 M 2869.759 1213.55 2915.356 1213.55 M 2993.308 1213.55 3723.144 1213.55 M 3754.017 1213.55 3819.243 1213.55 M 3954 1213.55 4079.474 1213.55 M 644.94 1188.681 730.475 1188.681 M 1041.172 1188.681 1252.339 1188.681 M 1330.327 1188.681 1714.743 1188.681 M 2025.44 1188.681 2698.974 1188.681 M 3009.671 1188.681 3683.241 1188.681 M 3993.938 1188.681 4079.474 1188.681 M 644.94 1163.812 718.669 1163.812 M 1052.978 1163.812 1252.339 1163.812 M 1492.774 1163.812 1702.9 1163.812 M 2037.245 1163.812 2687.168 1163.812 M 3021.478 1163.812 3671.436 1163.812 M 4005.744 1163.812 4079.474 1163.812 M 644.94 1138.944 717.486 1138.944 M 1054.163 1138.944 1252.339 1138.944 M 1492.774 1138.944 1701.752 1138.944 M 2038.394 1138.944 2686.02 1138.944 M 3022.661 1138.944 3670.251 1138.944 M 4006.892 1138.944 4079.474 1138.944 M 644.94 1114.075 726.348 1114.075 M 1045.335 1114.075 1252.339 1114.075 M 1492.774 1114.075 1710.58 1114.075 M 2029.567 1114.075 2694.848 1114.075 M 3013.833 1114.075 3679.079 1114.075 M 3998.066 1114.075 4079.474 1114.075 M 644.94 1089.206 717.593 1089.206 M 1018.745 1089.206 1252.339 1089.206 M 1492.774 1089.206 1737.134 1089.206 M 2038.501 1089.206 2721.402 1089.206 M 3028.976 1089.206 3705.669 1089.206 M 4009.297 1089.206 4079.474 1089.206 M 644.94 1064.337 717.593 1064.337 M 948.807 1064.337 1184.409 1064.337 M 1367.575 1064.337 1807.287 1064.337 M 2038.501 1064.337 2797.762 1064.337 M 3028.976 1064.337 3778.083 1064.337 M 4009.297 1064.337 4079.474 1064.337 M 644.94 1039.469 717.593 1039.469 M 948.807 1039.469 1184.409 1039.469 M 1367.575 1039.469 1807.287 1039.469 M 2038.501 1039.469 2797.762 1039.469 M 3028.976 1039.469 3778.083 1039.469 M 4009.297 1039.469 4079.474 1039.469 M 644.94 1014.6 717.593 1014.6 M 948.807 1014.6 1184.409 1014.6 M 1367.575 1014.6 1554.448 1014.6 M 1571.575 1014.6 1807.287 1014.6 M 2038.501 1014.6 2797.762 1014.6 M 3028.976 1014.6 3778.083 1014.6 M 4009.297 1014.6 4079.474 1014.6 M 644.94 989.731 717.593 989.731 M 948.807 989.731 1184.409 989.731 M 1367.575 989.731 1519.138 989.731 M 1606.85 989.731 1807.287 989.731 M 2038.501 989.731 2797.762 989.731 M 3028.976 989.731 3778.083 989.731 M 4009.297 989.731 4079.474 989.731 M 644.94 964.862 659.066 964.862 M 725.105 964.862 853.307 964.862 M 923.293 964.862 1046.543 964.862 M 1112.581 964.862 1309.573 964.862 M 1611.839 964.862 1643.297 964.862 M 1709.371 964.862 1835.098 964.862 M 1905.084 964.862 2030.774 964.862 M 2096.849 964.862 2627.564 964.862 M 2693.604 964.862 2823.277 964.862 M 2893.262 964.862 3015.042 964.862 M 3081.117 964.862 3611.832 964.862 M 3677.87 964.862 3789.745 964.862 M 3887.434 964.862 3999.31 964.862 M 4065.348 964.862 4079.474 964.862 M 764.362 939.993 853.307 939.993 M 923.293 939.993 1007.322 939.993 M 1151.839 939.993 1309.573 939.993 M 1748.593 939.993 1835.098 939.993 M 1905.084 939.993 1991.552 939.993 M 2136.071 939.993 2588.343 939.993 M 2732.861 939.993 2823.277 939.993 M 2893.262 939.993 2975.82 939.993 M 3120.339 939.993 3572.575 939.993 M 3717.092 939.993 3799.362 939.993 M 3877.818 939.993 3960.051 939.993 M 781.55 915.125 853.307 915.125 M 923.293 915.125 990.097 915.125 M 1169.028 915.125 1309.573 915.125 M 1558.049 915.125 1586.887 915.125 M 1765.818 915.125 1835.098 915.125 M 1905.084 915.125 1974.365 915.125 M 2153.295 915.125 2571.118 915.125 M 2750.049 915.125 2823.277 915.125 M 2893.262 915.125 2958.596 915.125 M 3137.526 915.125 3555.386 915.125 M 3734.316 915.125 3942.864 915.125 M 789.588 890.256 853.307 890.256 M 923.293 890.256 982.059 890.256 M 1177.066 890.256 1309.573 890.256 M 1492.774 890.256 1578.849 890.256 M 1773.82 890.256 1818.197 890.256 M 1904.904 890.256 1966.327 890.256 M 2161.298 890.256 2563.08 890.256 M 2758.087 890.256 2798.48 890.256 M 2891.218 890.256 2950.558 890.256 M 3145.564 890.256 3547.348 890.256 M 3742.354 890.256 3934.825 890.256 M 790.736 865.387 853.307 865.387 M 923.293 865.387 980.911 865.387 M 1416.341 865.387 1577.665 865.387 M 1775.004 865.387 1793.328 865.387 M 1890.228 865.387 1965.142 865.387 M 2162.482 865.387 2561.932 865.387 M 2759.272 865.387 2773.613 865.387 M 2870.549 865.387 2949.409 865.387 M 3146.749 865.387 3546.164 865.387 M 3743.503 865.387 3933.64 865.387 M 785.318 840.518 853.307 840.518 M 932.336 840.518 986.329 840.518 M 1426.713 840.518 1583.083 840.518 M 1865.361 840.518 1970.56 840.518 M 2157.063 840.518 2567.35 840.518 M 2845.644 840.518 2954.828 840.518 M 3141.331 840.518 3551.583 840.518 M 3738.084 840.518 3939.096 840.518 M 771.933 815.65 860.555 815.65 M 957.203 815.65 999.714 815.65 M 1159.411 815.65 1184.409 815.65 M 1422.335 815.65 1596.469 815.65 M 1840.492 815.65 1983.945 815.65 M 2143.678 815.65 2580.735 815.65 M 2820.777 815.65 2968.213 815.65 M 3127.945 815.65 3565.003 815.65 M 3724.699 815.65 3952.48 815.65 M 744.554 790.781 885.172 790.781 M 982.071 790.781 1027.093 790.781 M 1132.031 790.781 1184.409 790.781 M 1391.976 790.781 1623.883 790.781 M 1815.625 790.781 2011.361 790.781 M 2116.298 790.781 2608.115 790.781 M 2795.909 790.781 2995.592 790.781 M 3100.53 790.781 3592.382 790.781 M 3697.32 790.781 3979.86 790.781 M 644.94 765.912 910.039 765.912 M 1006.938 765.912 1309.573 765.912 M 1790.757 765.912 2674.142 765.912 M 2771.042 765.912 4079.474 765.912 M 644.94 741.043 934.907 741.043 M 1031.807 741.043 1309.573 741.043 M 1765.89 741.043 2649.274 741.043 M 2746.173 741.043 4079.474 741.043 M 644.94 716.175 959.776 716.175 M 1056.675 716.175 1309.573 716.175 M 1740.986 716.175 2009.71 716.175 M 2721.306 716.175 4079.474 716.175 M 644.94 691.306 984.643 691.306 M 1081.542 691.306 1309.573 691.306 M 1492.774 691.306 1998.192 691.306 M 2696.438 691.306 4079.474 691.306 M 644.94 666.437 1009.51 666.437 M 1367.575 666.437 2001.636 666.437 M 2671.571 666.437 4079.474 666.437 M 644.94 641.568 1034.378 641.568 M 1367.575 641.568 2027.76 641.568 M 2065.738 641.568 4079.474 641.568 M 644.94 616.699 1059.245 616.699 M 1367.575 616.699 4079.474 616.699 M 644.94 591.831 1184.409 591.831 M 1367.575 591.831 4079.474 591.831 M 644.94 566.962 4079.474 566.962 M 644.94 542.093 4079.474 542.093 M 644.94 517.224 4079.474 517.224 M 644.94 492.356 4079.474 492.356 M 644.94 467.487 4079.474 467.487 M 644.94 442.618 4079.474 442.618 M 1186.894 670.277 1186.894 687.319 1312.093 687.319 1312.091 784.344 1186.894 784.335 1186.894 887.319 1312.093 887.319 1312.091 984.344 1186.894 984.335 1186.894 1087.319 1254.823 1087.319 1254.846 1238.895 1251.698 1243.424 1248.386 1249.925 1246.131 1256.864 1244.99 1264.068 1244.99 1271.365 1246.131 1278.57 1248.386 1285.508 1251.698 1292.009 1255.986 1297.911 1261.144 1303.07 1267.046 1307.357 1273.547 1310.669 1280.486 1312.924 1287.69 1314.066 1294.987 1314.066 1302.192 1312.924 1309.13 1310.669 1315.631 1307.357 1321.533 1303.07 1326.692 1297.911 1330.979 1292.009 1334.291 1285.508 1336.546 1278.57 1337.688 1271.365 1337.688 1264.068 1336.546 1256.864 1334.291 1249.925 1330.979 1243.424 1327.831 1238.967 1327.831 1187.301 1490.272 1187.319 1490.272 1084.335 1365.072 1084.335 1365.075 987.31 1490.272 987.319 1490.272 968.336 1516.5 968.504 1517.072 975.777 1518.776 982.871 1521.567 989.612 1525.379 995.831 1530.117 1001.379 1535.665 1006.117 1541.885 1009.929 1548.625 1012.72 1555.719 1014.424 1562.992 1014.996 1570.265 1014.424 1577.36 1012.72 1584.1 1009.929 1590.319 1006.117 1595.867 1001.379 1600.605 995.831 1604.417 989.612 1607.209 982.871 1608.912 975.777 1609.484 968.504 1608.912 961.231 1607.209 954.136 1604.417 947.396 1600.605 941.177 1595.867 935.629 1590.319 930.891 1584.1 927.079 1577.36 924.287 1570.265 922.584 1562.465 922.033 1551.417 911.119 1547.293 908.122 1542.749 905.808 1537.9 904.232 1532.865 903.434 1490.304 903.335 1490.272 884.335 1365.072 884.335 1367.1 881.034 1374.304 882.176 1381.601 882.176 1388.806 881.034 1395.744 878.78 1402.245 875.467 1408.147 871.18 1413.306 866.021 1417.593 860.119 1420.906 853.618 1423.16 846.68 1424.302 839.475 1424.302 832.178 1423.16 824.974 1420.906 818.035 1417.593 811.534 1413.306 805.633 1408.147 800.474 1402.245 796.186 1395.744 792.874 1388.806 790.619 1381.601 789.478 1374.304 789.478 1367.1 790.619 1365.081 791.188 1367.209 787.319 1490.272 787.319 1490.272 768.336 1698.769 768.319 1715.643 785.217 1706.156 781.558 1698.865 779.501 1691.433 778.022 1683.909 777.133 1676.339 776.835 1668.768 777.133 1661.244 778.022 1653.812 779.501 1646.521 781.558 1639.412 784.18 1632.531 787.352 1625.921 791.054 1619.622 795.262 1613.672 799.954 1608.109 805.097 1602.966 810.66 1598.274 816.61 1594.066 822.909 1590.364 829.52 1587.192 836.4 1584.57 843.509 1582.513 850.801 1581.034 858.232 1580.144 865.756 1579.846 873.327 1580.144 880.898 1581.034 888.421 1582.513 895.853 1584.57 903.144 1587.192 910.253 1590.364 917.134 1594.066 923.744 1598.274 930.043 1602.966 935.993 1608.109 941.556 1613.672 946.699 1619.622 951.391 1625.921 955.6 1632.531 959.302 1639.412 962.474 1646.521 965.096 1653.812 967.152 1661.244 968.631 1668.768 969.521 1676.339 969.819 1683.909 969.521 1691.433 968.631 1698.865 967.152 1706.156 965.096 1713.265 962.474 1720.146 959.302 1726.756 955.6 1733.055 951.391 1739.005 946.699 1744.568 941.556 1749.711 935.993 1754.403 930.043 1758.612 923.744 1762.314 917.134 1765.486 910.253 1768.108 903.144 1770.164 895.853 1771.643 888.421 1772.533 880.898 1772.831 873.327 1772.533 865.756 1771.643 858.232 1770.164 850.801 1768.108 843.509 1764.333 833.902 1837.591 907.164 1837.587 974.046 1809.778 974.075 1809.778 1095.003 1803.164 1090.65 1796.6 1087.353 1789.713 1084.799 1782.585 1083.021 1775.306 1082.041 1767.963 1081.869 1760.646 1082.507 1753.444 1083.949 1746.444 1086.177 1739.732 1089.163 1733.392 1092.871 1727.499 1097.256 1722.126 1102.265 1717.337 1107.835 1713.193 1113.899 1709.743 1120.383 1707.029 1127.21 1705.084 1134.293 1703.933 1141.547 1703.589 1148.885 1704.056 1156.215 1705.329 1163.449 1707.392 1170.499 1710.22 1177.278 1713.778 1183.703 1718.025 1189.698 1722.906 1195.186 1728.362 1200.104 1734.328 1204.39 1740.73 1207.991 1747.49 1210.865 1754.525 1212.974 1761.751 1214.295 1769.077 1214.811 1776.417 1214.516 1783.68 1213.413 1790.776 1211.516 1797.619 1208.848 1804.126 1205.441 1810.218 1201.336 1815.82 1196.585 1820.079 1192.151 1826.895 1198.887 1835.337 1205.021 1844.634 1209.757 1854.556 1212.982 1864.862 1214.614 1875.295 1214.614 1885.601 1212.982 1895.524 1209.757 1904.82 1205.021 1913.262 1198.887 1920.072 1192.123 1926.895 1198.887 1933.591 1203.853 1933.587 1238.934 1930.438 1243.424 1927.126 1249.925 1924.871 1256.864 1923.73 1264.068 1923.73 1271.365 1924.871 1278.57 1927.126 1285.508 1930.438 1292.009 1934.726 1297.911 1939.885 1303.07 1945.786 1307.357 1952.287 1310.669 1959.226 1312.924 1966.43 1314.066 1973.727 1314.066 1980.932 1312.924 1987.87 1310.669 1994.371 1307.357 1998.828 1304.209 3822.056 1304.096 3827.711 1303.201 3833.157 1301.43 3838.26 1298.831 3842.892 1295.466 3877.475 1261.042 3925.102 1213.415 3933.366 1214.614 3943.799 1214.614 3954.105 1212.982 3964.028 1209.757 3973.324 1205.021 3981.766 1198.887 3989.143 1191.51 3995.277 1183.068 4000.013 1173.772 4003.238 1163.849 4004.87 1153.543 4004.87 1143.11 4003.238 1132.804 4000.013 1122.882 3995.277 1113.585 3989.143 1105.143 3981.93 1097.919 4006.807 1097.925 4006.807 974.075 3884.765 974.075 3885.075 968.504 3884.503 961.231 3882.799 954.136 3880.008 947.396 3876.196 941.177 3871.458 935.629 3865.909 930.891 3859.69 927.079 3852.95 924.287 3845.856 922.584 3838.583 922.012 3831.31 922.584 3824.215 924.287 3817.475 927.079 3811.256 930.891 3805.707 935.629 3800.97 941.177 3797.157 947.396 3794.366 954.136 3792.663 961.231 3792.091 968.504 3792.461 974.063 3780.594 974.075 3780.594 1096.801 3781.945 1097.924 3795.199 1097.925 3788.589 1104.53 3783.508 1099.307 3777.828 1094.651 3771.668 1090.65 3765.104 1087.353 3758.217 1084.799 3751.089 1083.021 3743.81 1082.041 3736.467 1081.869 3729.15 1082.507 3721.948 1083.949 3714.948 1086.177 3708.236 1089.163 3701.896 1092.871 3696.003 1097.256 3690.63 1102.265 3685.841 1107.835 3681.697 1113.899 3678.247 1120.383 3675.533 1127.21 3673.588 1134.293 3672.437 1141.547 3672.093 1148.885 3672.56 1156.215 3673.833 1163.449 3675.896 1170.499 3678.724 1177.278 3682.282 1183.703 3686.529 1189.698 3691.409 1195.186 3696.866 1200.104 3702.832 1204.39 3709.234 1207.991 3715.993 1210.865 3723.029 1212.974 3730.255 1214.295 3737.581 1214.811 3744.921 1214.516 3752.184 1213.413 3759.28 1211.516 3766.123 1208.848 3772.63 1205.441 3778.722 1201.336 3784.324 1196.585 3788.583 1192.151 3795.399 1198.887 3803.841 1205.021 3813.138 1209.757 3822.491 1212.822 3804.102 1231.199 2990.807 1231.224 2990.819 1203.853 2997.514 1198.887 3004.891 1191.51 3011.025 1183.068 3015.761 1173.772 3018.986 1163.849 3020.618 1153.543 3020.618 1143.11 3018.986 1132.804 3015.761 1122.882 3011.025 1113.585 3004.891 1105.143 2997.678 1097.919 3026.492 1097.925 3026.492 974.075 2890.743 974.075 2890.66 899.025 2889.862 893.99 2888.286 889.14 2885.972 884.597 2882.975 880.472 2835.773 833.13 2662.835 660.332 2658.71 657.335 2654.167 655.021 2649.318 653.445 2644.282 652.647 2577.428 652.547 2079.966 652.547 2074.075 647.427 2067.856 643.614 2061.115 640.823 2054.021 639.119 2046.748 638.547 2039.475 639.119 2032.381 640.823 2025.64 643.614 2019.421 647.427 2013.873 652.164 2009.135 657.713 2005.323 663.932 2002.531 670.672 2000.828 677.766 2000.256 685.039 2000.828 692.312 2002.531 699.407 2005.323 706.147 2009.135 712.366 2013.873 717.915 2019.421 722.652 2025.64 726.465 2032.381 729.256 2039.475 730.959 2046.748 731.531 2054.021 730.959 2061.115 729.256 2067.856 726.465 2074.075 722.652 2079.982 717.526 2628.251 717.531 2693.28 782.538 2683.117 779.501 2675.685 778.022 2668.161 777.133 2660.591 776.835 2653.02 777.133 2645.496 778.022 2638.064 779.501 2630.773 781.558 2623.664 784.18 2616.783 787.352 2610.173 791.054 2603.874 795.262 2597.924 799.954 2592.361 805.097 2587.218 810.66 2582.526 816.61 2578.318 822.909 2574.615 829.52 2571.444 836.4 2568.822 843.509 2566.765 850.801 2565.286 858.232 2564.396 865.756 2564.098 873.327 2564.396 880.898 2565.286 888.421 2566.765 895.853 2568.822 903.144 2571.444 910.253 2574.615 917.134 2578.318 923.744 2582.526 930.043 2587.218 935.993 2592.361 941.556 2597.924 946.699 2603.874 951.391 2610.173 955.6 2616.783 959.302 2623.664 962.474 2630.773 965.096 2638.064 967.152 2645.496 968.631 2653.02 969.521 2660.591 969.819 2668.161 969.521 2675.685 968.631 2683.117 967.152 2690.408 965.096 2697.517 962.474 2704.398 959.302 2711.008 955.6 2717.307 951.391 2723.257 946.699 2728.82 941.556 2733.963 935.993 2738.655 930.043 2742.864 923.744 2746.566 917.134 2749.738 910.253 2752.36 903.144 2754.416 895.853 2755.895 888.421 2756.785 880.898 2757.083 873.327 2756.785 865.756 2755.895 858.232 2754.416 850.801 2751.264 840.538 2825.783 915.041 2825.776 974.097 2800.28 974.075 2800.28 1097.925 2804.327 1104.492 2799.256 1099.307 2793.576 1094.651 2787.416 1090.65 2780.852 1087.353 2773.965 1084.799 2766.837 1083.021 2759.558 1082.041 2752.215 1081.869 2744.898 1082.507 2737.696 1083.949 2730.696 1086.177 2723.984 1089.163 2717.644 1092.871 2711.751 1097.256 2706.378 1102.265 2701.589 1107.835 2697.445 1113.899 2693.995 1120.383 2691.281 1127.21 2689.336 1134.293 2688.185 1141.547 2687.841 1148.885 2688.308 1156.215 2689.581 1163.449 2691.644 1170.499 2694.472 1177.278 2698.03 1183.703 2702.277 1189.698 2707.157 1195.186 2712.614 1200.104 2718.58 1204.39 2724.982 1207.991 2731.741 1210.865 2738.777 1212.974 2746.003 1214.295 2753.329 1214.811 2760.669 1214.516 2767.932 1213.413 2775.028 1211.516 2781.871 1208.848 2788.378 1205.441 2794.47 1201.336 2800.072 1196.585 2804.331 1192.151 2811.147 1198.887 2819.589 1205.021 2828.886 1209.757 2838.808 1212.982 2849.114 1214.614 2859.547 1214.614 2869.853 1212.982 2879.776 1209.757 2889.072 1205.021 2897.514 1198.887 2904.324 1192.123 2911.147 1198.887 2917.843 1203.853 2917.839 1231.255 2006.593 1231.224 2006.567 1203.853 2013.262 1198.887 2020.639 1191.51 2026.773 1183.068 2031.509 1173.772 2034.734 1163.849 2036.366 1153.543 2036.366 1143.11 2034.734 1132.804 2031.509 1122.882 2026.773 1113.585 2020.639 1105.143 2013.427 1097.919 2035.991 1097.925 2035.991 974.075 1902.538 974.075 1902.471 891.151 1901.673 886.115 1900.097 881.266 1897.783 876.723 1894.786 872.598 1847.584 825.255 1733.307 711.119 1729.182 708.122 1724.639 705.808 1719.79 704.232 1714.755 703.434 1647.9 703.335 1490.272 703.314 1490.272 684.335 1365.075 684.34 1365.075 584.335 1186.894 584.335 1186.894 605.327 1084.064 605.403 1079.029 606.201 1074.18 607.777 1069.636 610.091 1065.512 613.088 1018.168 660.29 863.605 814.995 860.608 819.119 858.294 823.663 856.718 828.512 855.92 833.547 855.82 900.402 855.82 974.072 720.088 974.068 720.088 1097.919 742.458 1097.919 736.619 1103.606 731.987 1109.307 728.012 1115.484 724.743 1122.062 722.218 1128.959 720.47 1136.093 719.52 1143.377 719.378 1150.722 720.047 1158.035 721.52 1165.232 723.777 1172.222 726.791 1178.92 730.526 1185.245 734.936 1191.119 739.966 1196.472 745.556 1201.238 751.638 1205.356 758.136 1208.78 764.974 1211.465 772.066 1213.379 779.324 1214.5 786.663 1214.814 793.992 1214.316 801.22 1213.012 808.261 1210.92 815.029 1208.063 821.44 1204.478 827.416 1200.207 832.885 1195.303 835.827 1192.151 842.643 1198.887 851.085 1205.021 860.382 1209.757 870.304 1212.982 880.61 1214.614 891.043 1214.614 901.349 1212.982 911.272 1209.757 920.568 1205.021 929.01 1198.887 935.82 1192.123 942.643 1198.887 951.085 1205.021 960.382 1209.757 970.304 1212.982 980.61 1214.614 991.043 1214.614 1001.349 1212.982 1011.272 1209.757 1020.568 1205.021 1029.01 1198.887 1036.387 1191.51 1042.521 1183.068 1047.257 1173.772 1050.482 1163.849 1052.114 1153.543 1052.114 1143.11 1050.482 1132.804 1047.257 1122.882 1042.521 1113.585 1036.387 1105.143 1029.01 1097.766 1020.568 1091.633 1011.272 1086.896 1001.349 1083.672 991.043 1082.039 980.61 1082.039 970.304 1083.672 960.382 1086.896 951.085 1091.633 946.311 1094.874 940.56 1097.919 942.466 1097.919 935.833 1104.53 929.175 1097.919 940.56 1097.919 946.301 1094.869 946.301 974.068 920.787 974.068 920.804 849.575 1100.096 670.265 1186.911 670.287 M 788.281 865.756 787.391 858.232 785.912 850.801 783.856 843.509 781.234 836.4 778.062 829.52 774.36 822.909 770.151 816.61 765.459 810.66 760.316 805.097 754.753 799.954 748.803 795.262 742.504 791.054 735.894 787.352 729.013 784.18 721.904 781.558 714.613 779.501 707.181 778.022 699.657 777.133 692.087 776.835 684.516 777.133 676.992 778.022 669.56 779.501 662.269 781.558 655.16 784.18 648.28 787.352 642.419 790.634 642.421 433.732 4082.016 433.76 4081.988 790.615 4076.13 787.352 4069.249 784.18 4062.14 781.558 4054.849 779.501 4047.417 778.022 4039.894 777.133 4032.323 776.835 4024.752 777.133 4017.228 778.022 4009.797 779.501 4002.505 781.558 3995.396 784.18 3988.516 787.352 3981.906 791.054 3975.606 795.262 3969.656 799.954 3964.093 805.097 3958.95 810.66 3954.259 816.61 3950.05 822.909 3946.348 829.52 3943.176 836.4 3940.554 843.509 3938.497 850.801 3937.018 858.232 3936.129 865.756 3935.831 873.327 3936.129 880.898 3937.018 888.421 3938.497 895.853 3940.554 903.144 3943.176 910.253 3946.348 917.134 3950.05 923.744 3954.259 930.043 3958.95 935.993 3964.093 941.556 3969.656 946.699 3975.606 951.391 3981.906 955.6 3988.516 959.302 3995.396 962.474 4002.505 965.096 4009.797 967.152 4017.228 968.631 4024.752 969.521 4032.323 969.819 4039.894 969.521 4047.417 968.631 4054.849 967.152 4062.14 965.096 4069.249 962.474 4076.13 959.302 4081.991 956.02 4081.988 1337.921 642.394 1337.894 642.421 956.063 648.28 959.302 655.16 962.474 662.269 965.096 669.56 967.152 676.992 968.631 684.516 969.521 692.087 969.819 699.657 969.521 707.181 968.631 714.613 967.152 721.904 965.096 729.013 962.474 735.894 959.302 742.504 955.6 748.803 951.391 754.753 946.699 760.316 941.556 765.459 935.993 770.151 930.043 774.36 923.744 778.062 917.134 781.234 910.253 783.856 903.144 785.912 895.853 787.391 888.421 788.281 880.898 788.579 873.327 788.281 865.756 M 1175.761 865.756 1174.871 858.232 1173.392 850.801 1171.336 843.509 1168.714 836.4 1165.542 829.52 1161.84 822.909 1157.631 816.61 1152.94 810.66 1147.797 805.097 1142.234 799.954 1136.283 795.262 1129.984 791.054 1123.374 787.352 1116.493 784.18 1109.385 781.558 1102.093 779.501 1094.661 778.022 1087.138 777.133 1079.567 776.835 1071.996 777.133 1064.472 778.022 1057.041 779.501 1049.749 781.558 1042.64 784.18 1035.76 787.352 1029.15 791.054 1022.85 795.262 1016.9 799.954 1011.337 805.097 1006.194 810.66 1001.503 816.61 997.294 822.909 993.592 829.52 990.42 836.4 987.798 843.509 985.741 850.801 984.262 858.232 983.373 865.756 983.075 873.327 983.373 880.898 984.262 888.421 985.741 895.853 987.798 903.144 990.42 910.253 993.592 917.134 997.294 923.744 1001.503 930.043 1006.194 935.993 1011.337 941.556 1016.9 946.699 1022.85 951.391 1029.15 955.6 1035.76 959.302 1042.64 962.474 1049.749 965.096 1057.041 967.152 1064.472 968.631 1071.996 969.521 1079.567 969.819 1087.138 969.521 1094.661 968.631 1102.093 967.152 1109.385 965.096 1116.493 962.474 1123.374 959.302 1129.984 955.6 1136.283 951.391 1142.234 946.699 1147.797 941.556 1152.94 935.993 1157.631 930.043 1161.84 923.744 1165.542 917.134 1168.714 910.253 1171.336 903.144 1173.392 895.853 1174.871 888.421 1175.761 880.898 1176.059 873.327 1175.761 865.756 M 1820.075 1104.492 1815.004 1099.307 1813.441 1097.924 1826.68 1097.925 1820.085 1104.53 M 2160.013 865.756 2159.123 858.232 2157.644 850.801 2155.588 843.509 2152.966 836.4 2149.794 829.52 2146.092 822.909 2141.883 816.61 2137.192 810.66 2132.049 805.097 2126.486 799.954 2120.535 795.262 2114.236 791.054 2107.626 787.352 2100.745 784.18 2093.636 781.558 2086.345 779.501 2078.913 778.022 2071.39 777.133 2063.819 776.835 2056.248 777.133 2048.724 778.022 2041.293 779.501 2034.001 781.558 2026.892 784.18 2020.012 787.352 2013.402 791.054 2007.102 795.262 2001.152 799.954 1995.589 805.097 1990.446 810.66 1985.755 816.61 1981.546 822.909 1977.844 829.52 1974.672 836.4 1972.05 843.509 1969.993 850.801 1968.514 858.232 1967.625 865.756 1967.327 873.327 1967.625 880.898 1968.514 888.421 1969.993 895.853 1972.05 903.144 1974.672 910.253 1977.844 917.134 1981.546 923.744 1985.755 930.043 1990.446 935.993 1995.589 941.556 2001.152 946.699 2007.102 951.391 2013.402 955.6 2020.012 959.302 2026.892 962.474 2034.001 965.096 2041.293 967.152 2048.724 968.631 2056.248 969.521 2063.819 969.819 2071.39 969.521 2078.913 968.631 2086.345 967.152 2093.636 965.096 2100.745 962.474 2107.626 959.302 2114.236 955.6 2120.535 951.391 2126.486 946.699 2132.049 941.556 2137.192 935.993 2141.883 930.043 2146.092 923.744 2149.794 917.134 2152.966 910.253 2155.588 903.144 2157.644 895.853 2159.123 888.421 2160.013 880.898 2160.311 873.327 2160.013 865.756 M 2810.983 1097.919 2804.337 1104.53 2800.28 1097.925 2810.937 1097.925 M 3144.265 865.756 3143.375 858.232 3141.896 850.801 3139.84 843.509 3137.218 836.4 3134.046 829.52 3130.344 822.909 3126.135 816.61 3121.444 810.66 3116.301 805.097 3110.738 799.954 3104.787 795.262 3098.488 791.054 3091.878 787.352 3084.997 784.18 3077.888 781.558 3070.597 779.501 3063.165 778.022 3055.642 777.133 3048.071 776.835 3040.5 777.133 3032.976 778.022 3025.545 779.501 3018.253 781.558 3011.144 784.18 3004.264 787.352 2997.654 791.054 2991.354 795.262 2985.404 799.954 2979.841 805.097 2974.698 810.66 2970.007 816.61 2965.798 822.909 2962.096 829.52 2958.924 836.4 2956.302 843.509 2954.245 850.801 2952.766 858.232 2951.877 865.756 2951.579 873.327 2951.877 880.898 2952.766 888.421 2954.245 895.853 2956.302 903.144 2958.924 910.253 2962.096 917.134 2965.798 923.744 2970.007 930.043 2974.698 935.993 2979.841 941.556 2985.404 946.699 2991.354 951.391 2997.654 955.6 3004.264 959.302 3011.144 962.474 3018.253 965.096 3025.545 967.152 3032.976 968.631 3040.5 969.521 3048.071 969.819 3055.642 969.521 3063.165 968.631 3070.597 967.152 3077.888 965.096 3084.997 962.474 3091.878 959.302 3098.488 955.6 3104.787 951.391 3110.738 946.699 3116.301 941.556 3121.444 935.993 3126.135 930.043 3130.344 923.744 3134.046 917.134 3137.218 910.253 3139.84 903.144 3141.896 895.853 3143.375 888.421 3144.265 880.898 3144.563 873.327 3144.265 865.756 M 3741.037 865.756 3740.147 858.232 3738.668 850.801 3736.612 843.509 3733.99 836.4 3730.818 829.52 3727.115 822.909 3722.907 816.61 3718.215 810.66 3713.072 805.097 3707.509 799.954 3701.559 795.262 3695.26 791.054 3688.65 787.352 3681.769 784.18 3674.66 781.558 3667.369 779.501 3659.937 778.022 3652.413 777.133 3644.843 776.835 3637.272 777.133 3629.748 778.022 3622.316 779.501 3615.025 781.558 3607.916 784.18 3601.035 787.352 3594.425 791.054 3588.126 795.262 3582.176 799.954 3576.613 805.097 3571.47 810.66 3566.778 816.61 3562.57 822.909 3558.867 829.52 3555.696 836.4 3553.073 843.509 3551.017 850.801 3549.538 858.232 3548.648 865.756 3548.35 873.327 3548.648 880.898 3549.538 888.421 3551.017 895.853 3553.073 903.144 3555.696 910.253 3558.867 917.134 3562.57 923.744 3566.778 930.043 3571.47 935.993 3576.613 941.556 3582.176 946.699 3588.126 951.391 3594.425 955.6 3601.035 959.302 3607.916 962.474 3615.025 965.096 3622.316 967.152 3629.748 968.631 3637.272 969.521 3644.843 969.819 3652.413 969.521 3659.937 968.631 3667.369 967.152 3674.66 965.096 3681.769 962.474 3688.65 959.302 3695.26 955.6 3701.559 951.391 3707.509 946.699 3713.072 941.556 3718.215 935.993 3722.907 930.043 3727.115 923.744 3730.818 917.134 3733.99 910.253 3736.612 903.144 3738.668 895.853 3740.147 888.421 3741.037 880.898 3741.335 873.327 3741.037 865.756 M 1933.587 1238.967 1930.438 1243.424 1927.126 1249.925 1924.871 1256.864 1923.73 1264.068 1923.73 1271.365 1924.871 1278.57 1927.126 1285.508 1930.438 1292.009 1934.726 1297.911 1939.885 1303.07 1945.786 1307.357 1952.287 1310.669 1959.226 1312.924 1966.43 1314.066 1973.727 1314.066 1980.932 1312.924 1987.87 1310.669 1994.371 1307.357 1998.828 1304.209" fill="none" stroke-width="25"/><path d="M 1401.181 1187.283 1401.181 1084.37 M 1401.181 1135.827 1490.236 1135.827 M 785.827 1214.783 785.827 1148.327 M 719.37 1148.327 785.827 1148.327 M 778.076 1035.993 778.076 974.104 M 720.123 1035.993 778.076 1035.993 M 1770.079 1214.783 1770.079 1081.87 M 1703.622 1148.327 1770.079 1148.327 M 1978.003 1036 1978.003 974.11 M 1978.003 1036 2035.955 1036 M 2754.331 1214.783 2754.331 1081.87 M 2687.874 1148.327 2754.331 1148.327 M 2968.504 1036 2968.504 974.11 M 2968.504 1036 3026.457 1036 M 3738.583 1214.783 3738.583 1081.87 M 3672.126 1148.327 3738.583 1148.327 M 3948.819 1036 3948.819 974.11 M 3948.819 1036 4006.772 1036" fill="none" stroke-width="20"/><use xlink:href="#H4bRBrOtpk_HCkHk6Xzd_pad-31" x="1275.984" y="635.827"/><use xlink:href="#H4bRBrOtpk_HCkHk6Xzd_pad-31" x="1401.181" y="735.827"/><use xlink:href="#H4bRBrOtpk_HCkHk6Xzd_pad-31" x="1275.984" y="835.827"/><use xlink:href="#H4bRBrOtpk_HCkHk6Xzd_pad-31" x="1401.181" y="935.827"/><use xlink:href="#H4bRBrOtpk_HCkHk6Xzd_pad-31" x="1275.984" y="1035.827"/><use xlink:href="#H4bRBrOtpk_HCkHk6Xzd_pad-31" x="1401.181" y="1135.827"/><use xlink:href="#H4bRBrOtpk_HCkHk6Xzd_pad-32" x="785.827" y="1148.327"/><use xlink:href="#H4bRBrOtpk_HCkHk6Xzd_pad-32" x="885.827" y="1148.327"/><use xlink:href="#H4bRBrOtpk_HCkHk6Xzd_pad-32" x="985.827" y="1148.327"/><use xlink:href="#H4bRBrOtpk_HCkHk6Xzd_pad-33" x="692.087" y="873.327"/><use xlink:href="#H4bRBrOtpk_HCkHk6Xzd_pad-33" x="1079.567" y="873.327"/><use xlink:href="#H4bRBrOtpk_HCkHk6Xzd_pad-34" x="778.076" y="1035.993"/><use xlink:href="#H4bRBrOtpk_HCkHk6Xzd_pad-34" x="888.312" y="1035.993"/><use xlink:href="#H4bRBrOtpk_HCkHk6Xzd_pad-32" x="1770.079" y="1148.327"/><use xlink:href="#H4bRBrOtpk_HCkHk6Xzd_pad-32" x="1870.079" y="1148.327"/><use xlink:href="#H4bRBrOtpk_HCkHk6Xzd_pad-32" x="1970.079" y="1148.327"/><use xlink:href="#H4bRBrOtpk_HCkHk6Xzd_pad-33" x="1676.339" y="873.327"/><use xlink:href="#H4bRBrOtpk_HCkHk6Xzd_pad-33" x="2063.819" y="873.327"/><use xlink:href="#H4bRBrOtpk_HCkHk6Xzd_pad-34" x="1978.003" y="1036"/><use xlink:href="#H4bRBrOtpk_HCkHk6Xzd_pad-34" x="1867.766" y="1036"/><use xlink:href="#H4bRBrOtpk_HCkHk6Xzd_pad-32" x="2754.331" y="1148.327"/><use xlink:href="#H4bRBrOtpk_HCkHk6Xzd_pad-32" x="2854.331" y="1148.327"/><use xlink:href="#H4bRBrOtpk_HCkHk6Xzd_pad-32" x="2954.331" y="1148.327"/><use xlink:href="#H4bRBrOtpk_HCkHk6Xzd_pad-33" x="2660.591" y="873.327"/><use xlink:href="#H4bRBrOtpk_HCkHk6Xzd_pad-33" x="3048.071" y="873.327"/><use xlink:href="#H4bRBrOtpk_HCkHk6Xzd_pad-34" x="2968.504" y="1036"/><use xlink:href="#H4bRBrOtpk_HCkHk6Xzd_pad-34" x="2858.268" y="1036"/><use xlink:href="#H4bRBrOtpk_HCkHk6Xzd_pad-32" x="3738.583" y="1148.327"/><use xlink:href="#H4bRBrOtpk_HCkHk6Xzd_pad-32" x="3838.583" y="1148.327"/><use xlink:href="#H4bRBrOtpk_HCkHk6Xzd_pad-32" x="3938.583" y="1148.327"/><use xlink:href="#H4bRBrOtpk_HCkHk6Xzd_pad-33" x="3644.843" y="873.327"/><use xlink:href="#H4bRBrOtpk_HCkHk6Xzd_pad-33" x="4032.323" y="873.327"/><use xlink:href="#H4bRBrOtpk_HCkHk6Xzd_pad-34" x="3948.819" y="1036"/><use xlink:href="#H4bRBrOtpk_HCkHk6Xzd_pad-34" x="3838.583" y="1036"/></g></svg>