<svg version="1.1" xmlns="http://www.w3.org/2000/svg" xmlns:xlink="http://www.w3.org/1999/xlink" stroke-linecap="round" stroke-linejoin="round" stroke-width="0" fill-rule="evenodd" width="3.26235in" height="0.8433765in" viewBox="732.2725 465.0245 3262.35 843.3765" id="BzDNTcfVwDC0zpW7PdTo"><defs><circle cx="0" cy="0" r="7.792" id="BzDNTcfVwDC0zpW7PdTo_pad-16"/><circle cx="0" cy="0" r="16.3885" id="BzDNTcfVwDC0zpW7PdTo_pad-17"/><circle cx="0" cy="0" r="6.2555" id="BzDNTcfVwDC0zpW7PdTo_pad-18"/><circle cx="0" cy="0" r="6.2555" id="BzDNTcfVwDC0zpW7PdTo_pad-19"/><circle cx="0" cy="0" r="6.219" id="BzDNTcfVwDC0zpW7PdTo_pad-20"/><circle cx="0" cy="0" r="6.219" id="BzDNTcfVwDC0zpW7PdTo_pad-21"/><circle cx="0" cy="0" r="6.987" id="BzDNTcfVwDC0zpW7PdTo_pad-22"/><rect x="-7.792" y="-7.022" width="15.584" height="14.044" rx="7.022" ry="7.022" id="BzDNTcfVwDC0zpW7PdTo_pad-23"/><rect x="-13.2425" y="-16.3815" width="26.485" height="32.763" rx="13.2425" ry="13.2425" id="BzDNTcfVwDC0zpW7PdTo_pad-24"/><rect x="-3.9145" y="-3.1235" width="7.829" height="6.247" rx="3.1235" ry="3.1235" id="BzDNTcfVwDC0zpW7PdTo_pad-25"/><circle cx="0" cy="0" r="7.0235" id="BzDNTcfVwDC0zpW7PdTo_pad-26"/><rect x="-7.8285" y="-7.022" width="15.657" height="14.044" rx="7.022" ry="7.022" id="BzDNTcfVwDC0zpW7PdTo_pad-27"/><rect x="-6.219" y="-7.022" width="12.438" height="14.044" rx="6.219" ry="6.219" id="BzDNTcfVwDC0zpW7PdTo_pad-28"/><rect x="-6.219" y="-5.4605" width="12.438" height="10.921" rx="5.4605" ry="5.4605" id="BzDNTcfVwDC0zpW7PdTo_pad-29"/><rect x="-22.335" y="-21.8685" width="44.67" height="43.737" rx="21.8685" ry="21.8685" id="BzDNTcfVwDC0zpW7PdTo_pad-30"/></defs><g transform="translate(0,1773.4254999999998) scale(1,-1)" fill="currentColor" stroke="currentColor"><use xlink:href="#BzDNTcfVwDC0zpW7PdTo_pad-16" x="3159.05" y="615.675"/><path d="M 2992.126 645.315 3076.484 789.081 3142.112 645.315 2992.126 645.315"/><path d="M 3155.94 782.59 3215.203 782.59 3223.032 781.04 3233.933 776.366 3241.762 771.692 3249.517 765.445 3254.2 759.198 3258.882 749.85 3260.419 742.03 3262.028 731.131 3260.419 721.761 3255.736 710.84 3249.517 704.593 3241.762 698.369 3232.397 693.672 3224.568 690.571 3272.93 645.315 3155.94 645.315 3155.94 782.59"/><path d="M 3254.2 782.59 3397.747 782.59 3377.481 743.603 3349.386 738.929 3340.021 646.887 3313.462 646.887 3304.097 738.929 3276.076 743.603 3254.2 782.59"/><path d="M 3411.795 724.884 3432.061 724.884 3452.328 645.315 3393.065 645.315 3411.795 724.884"/><path d="M 3569.317 671.831 3500.689 709.289 3569.317 745.154 3559.952 756.074 3550.587 762.321 3538.149 768.568 3525.638 771.692 3511.591 771.692 3499.153 768.568 3486.642 763.872 3475.74 756.074 3466.375 745.154 3460.156 734.233 3457.01 721.761 3455.474 709.289 3457.01 695.245 3460.156 682.751 3467.912 670.28 3477.277 660.932 3488.178 653.112 3500.689 648.438 3511.591 645.315 3525.638 645.315 3538.149 648.438 3552.197 654.685 3569.317 671.831"/><path d="M 3570.854 646.887 3634.872 791.961 3723.766 645.315 3570.854 646.887"/><use xlink:href="#BzDNTcfVwDC0zpW7PdTo_pad-17" x="3421.892" y="767.782"/><path d="M 3074.801 615.675 3087.312 615.675 3087.312 578.238 3074.801 578.238 3074.801 615.675"/><use xlink:href="#BzDNTcfVwDC0zpW7PdTo_pad-18" x="3081.057" y="617.237"/><use xlink:href="#BzDNTcfVwDC0zpW7PdTo_pad-19" x="3081.057" y="578.238"/><path d="M 3091.995 615.675 3104.433 615.675 3104.433 578.238 3091.995 578.238 3091.995 615.675"/><use xlink:href="#BzDNTcfVwDC0zpW7PdTo_pad-20" x="3098.214" y="617.237"/><use xlink:href="#BzDNTcfVwDC0zpW7PdTo_pad-21" x="3098.214" y="578.238"/><path d="M 3132.528 615.675 3145.039 615.675 3145.039 578.238 3132.528 578.238 3132.528 615.675"/><use xlink:href="#BzDNTcfVwDC0zpW7PdTo_pad-18" x="3138.783" y="617.237"/><use xlink:href="#BzDNTcfVwDC0zpW7PdTo_pad-19" x="3138.783" y="578.238"/><path d="M 3224.568 614.125 3237.079 614.125 3237.079 576.688 3224.568 576.688 3224.568 614.125"/><use xlink:href="#BzDNTcfVwDC0zpW7PdTo_pad-18" x="3230.824" y="615.686"/><use xlink:href="#BzDNTcfVwDC0zpW7PdTo_pad-18" x="3230.824" y="576.677"/><use xlink:href="#BzDNTcfVwDC0zpW7PdTo_pad-22" x="3195.705" y="597.732"/><use xlink:href="#BzDNTcfVwDC0zpW7PdTo_pad-23" x="3194.9" y="580.587"/><use xlink:href="#BzDNTcfVwDC0zpW7PdTo_pad-16" x="3605.204" y="615.675"/><path d="M 3212.057 623.473 3249.517 623.473 3249.517 611.001 3212.057 611.001 3212.057 623.473"/><use xlink:href="#BzDNTcfVwDC0zpW7PdTo_pad-18" x="3213.63" y="617.237"/><use xlink:href="#BzDNTcfVwDC0zpW7PdTo_pad-20" x="3247.981" y="617.237"/><path d="M 3262.028 615.675 3274.466 615.675 3274.466 578.238 3262.028 578.238 3262.028 615.675"/><use xlink:href="#BzDNTcfVwDC0zpW7PdTo_pad-20" x="3268.247" y="617.237"/><use xlink:href="#BzDNTcfVwDC0zpW7PdTo_pad-21" x="3268.247" y="578.238"/><path d="M 3316.609 615.675 3329.12 615.675 3329.12 596.957 3316.609 596.957 3316.609 615.675"/><use xlink:href="#BzDNTcfVwDC0zpW7PdTo_pad-18" x="3322.864" y="617.237"/><path d="M 3268.247 623.473 3302.561 623.473 3302.561 590.71 3268.247 590.71 3268.247 623.473"/><path d="M 3357.141 615.675 3369.652 615.675 3369.652 601.631 3357.141 601.631 3357.141 615.675"/><use xlink:href="#BzDNTcfVwDC0zpW7PdTo_pad-18" x="3363.397" y="617.237"/><use xlink:href="#BzDNTcfVwDC0zpW7PdTo_pad-24" x="3300.22" y="607.091"/><path d="M 3563.098 614.125 3575.536 614.125 3575.536 576.688 3563.098 576.688 3563.098 614.125"/><use xlink:href="#BzDNTcfVwDC0zpW7PdTo_pad-20" x="3569.317" y="615.686"/><use xlink:href="#BzDNTcfVwDC0zpW7PdTo_pad-20" x="3569.317" y="576.677"/><path d="M 3550.587 623.473 3588.047 623.473 3588.047 611.001 3550.587 611.001 3550.587 623.473"/><use xlink:href="#BzDNTcfVwDC0zpW7PdTo_pad-18" x="3552.16" y="617.237"/><use xlink:href="#BzDNTcfVwDC0zpW7PdTo_pad-18" x="3586.474" y="617.237"/><path d="M 3430.452 615.675 3442.963 615.675 3442.963 578.238 3430.452 578.238 3430.452 615.675"/><use xlink:href="#BzDNTcfVwDC0zpW7PdTo_pad-18" x="3436.707" y="617.237"/><use xlink:href="#BzDNTcfVwDC0zpW7PdTo_pad-19" x="3436.707" y="578.238"/><path d="M 3413.331 615.675 3425.842 615.675 3425.842 578.238 3413.331 578.238 3413.331 615.675"/><use xlink:href="#BzDNTcfVwDC0zpW7PdTo_pad-18" x="3419.587" y="617.237"/><use xlink:href="#BzDNTcfVwDC0zpW7PdTo_pad-19" x="3419.587" y="578.238"/><path d="M 3372.798 615.675 3385.236 615.675 3385.236 578.238 3372.798 578.238 3372.798 615.675"/><use xlink:href="#BzDNTcfVwDC0zpW7PdTo_pad-20" x="3379.017" y="617.237"/><use xlink:href="#BzDNTcfVwDC0zpW7PdTo_pad-21" x="3379.017" y="578.238"/><path d="M 3319.755 600.08 3329.12 600.08 3329.12 590.71 3319.755 590.71 3319.755 600.08"/><use xlink:href="#BzDNTcfVwDC0zpW7PdTo_pad-25" x="3398.516" y="592.283"/><use xlink:href="#BzDNTcfVwDC0zpW7PdTo_pad-26" x="3641.896" y="597.732"/><use xlink:href="#BzDNTcfVwDC0zpW7PdTo_pad-27" x="3641.091" y="580.587"/><path d="M 3606.777 623.473 3644.237 623.473 3644.237 611.001 3606.777 611.001 3606.777 623.473"/><use xlink:href="#BzDNTcfVwDC0zpW7PdTo_pad-20" x="3608.314" y="617.237"/><use xlink:href="#BzDNTcfVwDC0zpW7PdTo_pad-18" x="3642.664" y="617.237"/><path d="M 3602.095 604.754 3639.555 604.754 3639.555 593.833 3602.095 593.833 3602.095 604.754"/><use xlink:href="#BzDNTcfVwDC0zpW7PdTo_pad-28" x="3603.631" y="600.856"/><path d="M 3602.095 584.485 3639.555 584.485 3639.555 573.564 3602.095 573.564 3602.095 584.485"/><path d="M 3098.214 623.473 3141.893 584.485 3140.356 571.992 3134.064 575.115 3098.214 606.327 3098.214 623.473"/><path d="M 3486.642 615.675 3499.153 615.675 3499.153 578.238 3486.642 578.238 3486.642 615.675"/><use xlink:href="#BzDNTcfVwDC0zpW7PdTo_pad-18" x="3492.897" y="617.237"/><use xlink:href="#BzDNTcfVwDC0zpW7PdTo_pad-19" x="3492.897" y="578.238"/><path d="M 3527.175 615.675 3539.686 615.675 3539.686 578.238 3527.175 578.238 3527.175 615.675"/><use xlink:href="#BzDNTcfVwDC0zpW7PdTo_pad-18" x="3533.43" y="617.237"/><use xlink:href="#BzDNTcfVwDC0zpW7PdTo_pad-19" x="3533.43" y="578.238"/><path d="M 3492.861 623.473 3536.54 584.485 3535.003 571.992 3528.784 575.115 3492.861 606.327 3492.861 623.473"/><path d="M 3160.623 623.473 3198.01 623.473 3198.01 611.001 3160.623 611.001 3160.623 623.473"/><use xlink:href="#BzDNTcfVwDC0zpW7PdTo_pad-20" x="3162.159" y="617.237"/><use xlink:href="#BzDNTcfVwDC0zpW7PdTo_pad-20" x="3196.473" y="617.237"/><path d="M 3155.94 604.754 3193.4 604.754 3193.4 593.833 3155.94 593.833 3155.94 604.754"/><use xlink:href="#BzDNTcfVwDC0zpW7PdTo_pad-28" x="3157.477" y="600.856"/><use xlink:href="#BzDNTcfVwDC0zpW7PdTo_pad-29" x="3602.095" y="579.025"/><path d="M 3155.94 584.485 3193.4 584.485 3193.4 573.564 3155.94 573.564 3155.94 584.485"/><use xlink:href="#BzDNTcfVwDC0zpW7PdTo_pad-29" x="3155.94" y="579.025"/><use xlink:href="#BzDNTcfVwDC0zpW7PdTo_pad-20" x="3191.791" y="579.8"/><use xlink:href="#BzDNTcfVwDC0zpW7PdTo_pad-19" x="3305.67" y="578.238"/><path d="M 3280.758 592.283 3301.025 573.564 3310.39 582.913 3297.879 595.406 3280.758 592.283"/><path d="M 3341.557 571.992 3352.459 571.992 3363.433 579.811 3368.116 590.71 3369.652 603.204 3357.141 604.754 3355.605 592.283 3341.557 571.992"/><path d="M 3316.609 603.204 3316.609 587.609 3327.51 573.564 3344.704 571.992 3358.751 581.362 3350.922 586.036 3344.704 582.913 3335.339 584.485 3316.609 603.204"/><path d="M 3380.554 623.473 3399.284 606.327 3416.477 621.922 3422.696 612.552 3402.43 592.283 3394.601 592.283 3380.554 606.327 3380.554 623.473"/><path d="M 3151.258 614.125 3163.696 614.125 3163.696 601.631 3151.258 601.631 3151.258 614.125"/><path d="M 3191.791 595.406 3202.692 595.406 3202.692 581.362 3191.791 581.362 3191.791 595.406"/><path d="M 3436.744 625.046 3474.131 625.046 3474.131 612.552 3436.744 612.552 3436.744 625.046"/><use xlink:href="#BzDNTcfVwDC0zpW7PdTo_pad-21" x="3438.28" y="618.799"/><use xlink:href="#BzDNTcfVwDC0zpW7PdTo_pad-21" x="3472.594" y="618.799"/><path d="M 3435.134 604.754 3472.594 604.754 3472.594 592.283 3435.134 592.283 3435.134 604.754"/><use xlink:href="#BzDNTcfVwDC0zpW7PdTo_pad-18" x="3436.707" y="598.519"/><use xlink:href="#BzDNTcfVwDC0zpW7PdTo_pad-20" x="3471.058" y="598.519"/><path d="M 3436.744 584.485 3474.131 584.485 3474.131 571.992 3436.744 571.992 3436.744 584.485"/><use xlink:href="#BzDNTcfVwDC0zpW7PdTo_pad-21" x="3438.28" y="578.238"/><use xlink:href="#BzDNTcfVwDC0zpW7PdTo_pad-21" x="3472.594" y="578.238"/><use xlink:href="#BzDNTcfVwDC0zpW7PdTo_pad-18" x="3637.982" y="579.8"/><path d="M 3597.412 614.125 3609.85 614.125 3609.85 601.631 3597.412 601.631 3597.412 614.125"/><path d="M 3637.945 595.406 3648.92 595.406 3648.92 581.362 3637.945 581.362 3637.945 595.406"/><path d="M 3343.909 1308.401 3370.426 1308.401 3375.099 1277.203 3393.829 1269.399 3418.789 1289.689 3439.056 1269.399 3418.789 1244.445 3426.596 1227.276 3457.786 1222.594 3457.786 1194.518 3426.596 1191.396 3418.789 1172.685 3437.499 1147.712 3418.789 1129.001 3393.829 1147.712 3382.906 1143.048 3367.311 1180.489 3378.234 1189.835 3386.021 1200.761 3386.021 1213.247 3382.906 1224.155 3373.541 1231.958 3362.619 1236.641 3350.139 1236.641 3339.216 1230.398 3332.986 1221.033 3329.871 1208.565 3332.986 1196.078 3340.794 1185.153 3348.581 1180.489 3332.986 1143.048 3322.064 1147.712 3297.104 1129.001 3278.394 1147.712 3297.104 1174.245 3289.296 1191.396 3258.106 1194.518 3258.106 1222.594 3290.874 1225.715 3297.104 1244.445 3276.836 1269.399 3297.104 1288.129 3322.064 1269.399 3340.794 1275.642 3343.909 1308.401"/><use xlink:href="#BzDNTcfVwDC0zpW7PdTo_pad-30" x="1435.911" y="1213.958"/><path d="M 1289.556 680.238 1289.556 790.524 M 1289.556 585.94 1289.556 593.673 M 1289.556 585.94 1387.61 585.94 1387.61 692.131 M 1387.61 778.696 1387.61 892.816 M 1289.556 880.274 1289.556 990.559 M 1387.61 978.666 1387.61 1092.852 M 1289.556 1080.374 1289.556 1185.85 M 1387.61 1178.832 1387.61 1185.85 1289.556 1185.85 M 737.194 1080.993 929.194 1080.993 929.194 990.993 737.194 990.993 737.194 1080.993 M 2018.885 991 1826.885 991 1826.885 1081 2018.885 1081 2018.885 991 M 3009.386 991 2817.386 991 2817.386 1081 3009.386 1081 3009.386 991 M 3989.701 991 3797.701 991 3797.701 1081 3989.701 1081 3989.701 991" fill="none" stroke-width="9.843"/><path d="M 785.557 975.048 788.442 976.507 792.753 980.785 792.753 950.674 M 810.639 980.785 806.328 979.359 803.442 975.048 802.016 967.885 802.016 963.574 803.442 956.411 806.328 952.1 810.639 950.674 813.49 950.674 817.801 952.1 820.653 956.411 822.112 963.574 822.112 967.885 820.653 975.048 817.801 979.359 813.49 980.785 810.639 980.785 M 820.653 975.048 803.442 956.411 M 839.998 980.785 835.687 979.359 832.802 975.048 831.376 967.885 831.376 963.574 832.802 956.411 835.687 952.1 839.998 950.674 842.85 950.674 847.161 952.1 850.013 956.411 851.472 963.574 851.472 967.885 850.013 975.048 847.161 979.359 842.85 980.785 839.998 980.785 M 850.013 975.048 832.802 956.411 M 880.832 980.818 880.832 950.674 860.736 980.818 860.736 950.674 M 1875.247 975.055 1878.132 976.514 1882.443 980.792 1882.443 950.681 M 1900.329 980.792 1896.018 979.366 1893.133 975.055 1891.707 967.892 1891.707 963.581 1893.133 956.418 1896.018 952.107 1900.329 950.681 1903.181 950.681 1907.492 952.107 1910.344 956.418 1911.803 963.581 1911.803 967.892 1910.344 975.055 1907.492 979.366 1903.181 980.792 1900.329 980.792 M 1910.344 975.055 1893.133 956.418 M 1929.688 980.792 1925.377 979.366 1922.492 975.055 1921.066 967.892 1921.066 963.581 1922.492 956.418 1925.377 952.107 1929.688 950.681 1932.54 950.681 1936.851 952.107 1939.703 956.418 1941.162 963.581 1941.162 967.892 1939.703 975.055 1936.851 979.366 1932.54 980.792 1929.688 980.792 M 1939.703 975.055 1922.492 956.418 M 1970.522 980.825 1970.522 950.681 1950.426 980.825 1950.426 950.681 M 2865.748 975.055 2868.634 976.514 2872.945 980.792 2872.945 950.681 M 2890.83 980.792 2886.519 979.366 2883.634 975.055 2882.208 967.892 2882.208 963.581 2883.634 956.418 2886.519 952.107 2890.83 950.681 2893.682 950.681 2897.993 952.107 2900.845 956.418 2902.304 963.581 2902.304 967.892 2900.845 975.055 2897.993 979.366 2893.682 980.792 2890.83 980.792 M 2900.845 975.055 2883.634 956.418 M 2920.19 980.792 2915.879 979.366 2912.994 975.055 2911.568 967.892 2911.568 963.581 2912.994 956.418 2915.879 952.107 2920.19 950.681 2923.042 950.681 2927.353 952.107 2930.205 956.418 2931.664 963.581 2931.664 967.892 2930.205 975.055 2927.353 979.366 2923.042 980.792 2920.19 980.792 M 2930.205 975.055 2912.994 956.418 M 2961.023 980.825 2961.023 950.681 2940.927 980.825 2940.927 950.681 M 3846.063 975.055 3848.948 976.514 3853.26 980.792 3853.26 950.681 M 3871.145 980.792 3866.834 979.366 3863.949 975.055 3862.523 967.892 3862.523 963.581 3863.949 956.418 3866.834 952.107 3871.145 950.681 3873.997 950.681 3878.308 952.107 3881.16 956.418 3882.619 963.581 3882.619 967.892 3881.16 975.055 3878.308 979.366 3873.997 980.792 3871.145 980.792 M 3881.16 975.055 3863.949 956.418 M 3900.505 980.792 3896.194 979.366 3893.309 975.055 3891.883 967.892 3891.883 963.581 3893.309 956.418 3896.194 952.107 3900.505 950.681 3903.357 950.681 3907.668 952.107 3910.519 956.418 3911.979 963.581 3911.979 967.892 3910.519 975.055 3907.668 979.366 3903.357 980.792 3900.505 980.792 M 3910.519 975.055 3893.309 956.418 M 3941.338 980.825 3941.338 950.681 3921.242 980.825 3921.242 950.681" fill="none" stroke-width="4.632"/><path d="M 1513.252 751.053 1513.252 753.905 1516.104 759.675 1518.956 762.527 1524.726 765.379 1536.2 765.379 1541.904 762.527 1544.756 759.675 1547.674 753.905 1547.674 748.201 1544.756 742.431 1539.052 733.875 1510.334 705.157 1550.526 705.157 M 1513.848 1141.518 1547.01 1141.518 M 1530.396 1067.354 1530.396 1015.688 M 1504.596 1041.488 1556.262 1041.488 M 1537.625 911.409 1537.625 971.63 1508.907 931.505 1551.951 931.505 M 1516.104 871.633 1547.608 871.633 1530.43 848.685 1539.052 848.685 1544.756 845.833 1547.608 842.981 1550.526 834.359 1550.526 828.656 1547.608 820.033 1541.904 814.263 1533.282 811.411 1524.66 811.411 1516.104 814.263 1513.252 817.182 1510.334 822.885 M 1516.983 647.657 1522.754 650.575 1531.376 659.13 1531.376 598.909 M 865.613 692.93 871.384 695.848 880.006 704.403 880.006 644.182 M 2840.134 704.403 2871.638 704.403 2854.46 681.456 2863.082 681.456 2868.786 678.604 2871.638 675.752 2874.556 667.13 2874.556 661.426 2871.638 652.804 2865.934 647.034 2857.312 644.182 2848.69 644.182 2840.134 647.034 2837.282 649.952 2834.364 655.656" fill="none" stroke-width="9.264"/><path d="M 3045.852 522.919 3047.753 521.017 3049.698 522.919 3047.753 524.864 3045.852 522.919 M 3047.753 509.521 3047.753 482.727 M 3062.05 509.521 3062.05 482.727 M 3062.05 501.872 3067.798 507.62 3071.645 509.521 3077.348 509.521 3081.195 507.62 3083.096 501.872 3083.096 482.727 M 3116.494 503.773 3114.593 507.62 3108.845 509.521 3103.097 509.521 3097.349 507.62 3095.448 503.773 3097.349 499.971 3101.196 498.025 3110.746 496.124 3114.593 494.223 3116.494 490.376 3116.494 488.475 3114.593 484.672 3108.845 482.727 3103.097 482.727 3097.349 484.672 3095.448 488.475 M 3134.594 522.919 3134.594 490.376 3136.495 484.672 3140.342 482.727 3144.144 482.727 M 3128.846 509.521 3142.243 509.521 M 3156.496 509.521 3156.496 482.727 M 3156.496 498.025 3158.441 503.773 3162.244 507.62 3166.091 509.521 3171.839 509.521 M 3184.19 509.521 3184.19 490.376 3186.091 484.672 3189.938 482.727 3195.686 482.727 3199.489 484.672 3205.237 490.376 M 3205.237 509.521 3205.237 482.727 M 3217.588 509.521 3217.588 482.727 M 3217.588 501.872 3223.336 507.62 3227.183 509.521 3232.887 509.521 3236.733 507.62 3238.635 501.872 3238.635 482.727 M 3238.635 501.872 3244.383 507.62 3248.23 509.521 3253.933 509.521 3257.78 507.62 3259.726 501.872 3259.726 482.727 M 3272.077 498.025 3295.025 498.025 3295.025 501.872 3293.124 505.719 3291.222 507.62 3287.376 509.521 3281.628 509.521 3277.825 507.62 3273.978 503.773 3272.077 498.025 3272.077 494.223 3273.978 488.475 3277.825 484.672 3281.628 482.727 3287.376 482.727 3291.222 484.672 3295.025 488.475 M 3307.376 509.521 3307.376 482.727 M 3307.376 501.872 3313.124 507.62 3316.971 509.521 3322.675 509.521 3326.522 507.62 3328.423 501.872 3328.423 482.727 M 3346.522 522.919 3346.522 490.376 3348.424 484.672 3352.27 482.727 3356.073 482.727 M 3340.774 509.521 3354.172 509.521 M 3389.471 503.773 3387.57 507.62 3381.822 509.521 3376.074 509.521 3370.326 507.62 3368.424 503.773 3370.326 499.971 3374.172 498.025 3383.723 496.124 3387.57 494.223 3389.471 490.376 3389.471 488.475 3387.57 484.672 3381.822 482.727 3376.074 482.727 3370.326 484.672 3368.424 488.475 M 3403.724 486.573 3401.822 484.628 3403.724 482.727 3405.669 484.628 3403.724 486.573 M 3440.968 509.521 3440.968 482.727 M 3440.968 503.773 3437.166 507.62 3433.319 509.521 3427.615 509.521 3423.769 507.62 3419.966 503.773 3418.021 498.025 3418.021 494.223 3419.966 488.475 3423.769 484.672 3427.615 482.727 3433.319 482.727 3437.166 484.672 3440.968 488.475 M 3453.32 509.521 3453.32 482.727 M 3453.32 498.025 3455.265 503.773 3459.068 507.62 3462.915 509.521 3468.663 509.521 M 3486.762 522.919 3486.762 490.376 3488.663 484.672 3492.51 482.727 3496.313 482.727 M 3481.014 509.521 3494.411 509.521 M 3508.664 522.919 3510.565 521.017 3512.511 522.919 3510.565 524.864 3508.664 522.919 M 3510.565 509.521 3510.565 482.727 M 3547.854 503.773 3544.008 507.62 3540.161 509.521 3534.457 509.521 3530.61 507.62 3526.808 503.773 3524.862 498.025 3524.862 494.223 3526.808 488.475 3530.61 484.672 3534.457 482.727 3540.161 482.727 3544.008 484.672 3547.854 488.475 M 3583.154 509.521 3583.154 482.727 M 3583.154 503.773 3579.351 507.62 3575.504 509.521 3569.801 509.521 3565.954 507.62 3562.151 503.773 3560.206 498.025 3560.206 494.223 3562.151 488.475 3565.954 484.672 3569.801 482.727 3575.504 482.727 3579.351 484.672 3583.154 488.475 M 3597.406 486.573 3595.505 484.628 3597.406 482.727 3599.352 484.628 3597.406 486.573 M 3634.695 503.773 3630.849 507.62 3627.002 509.521 3621.298 509.521 3617.451 507.62 3613.649 503.773 3611.703 498.025 3611.703 494.223 3613.649 488.475 3617.451 484.672 3621.298 482.727 3627.002 482.727 3630.849 484.672 3634.695 488.475 M 3670.039 503.773 3666.192 507.62 3662.345 509.521 3656.642 509.521 3652.795 507.62 3648.992 503.773 3647.047 498.025 3647.047 494.223 3648.992 488.475 3652.795 484.672 3656.642 482.727 3662.345 482.727 3666.192 484.672 3670.039 488.475" fill="none" stroke-width="6.176"/><path d="M 2043.085 520.606 2043.085 1243.267 1698.468 761.759 2214.995 761.759" fill="none" stroke-width="111.163"/><path d="M 986.624 1228.342 986.624 1262.786 M 1003.824 1245.586 969.38 1245.587 M 893.266 1251.313 891.364 1255.159 885.616 1257.061 879.868 1257.061 874.12 1255.159 872.219 1251.313 874.12 1247.51 877.967 1245.565 887.518 1243.663 891.364 1241.762 893.266 1237.915 893.266 1236.014 891.364 1232.211 885.616 1230.266 879.868 1230.266 874.12 1232.211 872.219 1236.014" fill="none" stroke-width="6.176"/><path d="M 1762.195 1245.806 1778.776 1245.806 M 1968.008 1258.722 1968.008 1232.889 M 1955.109 1245.789 1980.942 1245.789" fill="none" stroke-width="4.632"/><path d="M 1882.389 1247.376 1880.488 1251.222 1874.74 1253.124 1868.992 1253.124 1863.244 1251.222 1861.342 1247.376 1863.244 1243.573 1867.09 1241.628 1876.641 1239.726 1880.488 1237.825 1882.389 1233.978 1882.389 1232.077 1880.488 1228.274 1874.74 1226.329 1868.992 1226.329 1863.244 1228.274 1861.342 1232.077 M 2953.75 1224.405 2953.75 1258.849 M 2970.95 1241.649 2936.506 1241.649 M 2766.324 1241.627 2744.216 1241.627 M 2865.952 1247.376 2864.051 1251.222 2858.303 1253.124 2852.555 1253.124 2846.807 1251.222 2844.905 1247.376 2846.807 1243.573 2850.653 1241.628 2860.204 1239.726 2864.051 1237.825 2865.952 1233.978 2865.952 1232.077 2864.051 1228.274 2858.303 1226.329 2852.555 1226.329 2846.807 1228.274 2844.905 1232.077 M 3935 1224.405 3935 1258.849 M 3952.199 1241.649 3917.756 1241.649 M 3745.949 1241.627 3723.841 1241.627 M 3851.138 1247.376 3849.237 1251.222 3843.489 1253.124 3837.741 1253.124 3831.993 1251.222 3830.092 1247.376 3831.993 1243.573 3835.84 1241.628 3845.39 1239.726 3849.237 1237.825 3851.138 1233.978 3851.138 1232.077 3849.237 1228.274 3843.489 1226.329 3837.741 1226.329 3831.993 1228.274 3830.092 1232.077" fill="none" stroke-width="6.176"/><path d="M 3856.833 644.182 3856.833 704.403 3828.115 664.278 3871.159 664.278" fill="none" stroke-width="9.264"/><path d="M 789.699 1245.564 767.592 1245.564" fill="none" stroke-width="6.176"/><path d="M 2179.718 865.223 2490.111 865.223 2592.78 899.446 2627.799 934.465 2662.022 1002.911 2662.022 1106.375 2627.799 1174.821 2592.78 1209.84 2490.111 1244.063 2179.718 1244.063 2179.718 520.606" fill="none" stroke-width="111.163"/><path d="M 2257.82 974.457 2269.316 947.662 2280.768 974.457 M 2293.119 980.161 2296.966 982.106 2302.714 987.81 2302.714 947.662 M 2316.967 951.509 2315.066 949.564 2316.967 947.662 2318.912 949.564 2316.967 951.509 M 2342.76 987.81 2337.012 985.909 2333.165 980.161 2331.264 970.61 2331.264 964.862 2333.165 955.312 2337.012 949.564 2342.76 947.662 2346.562 947.662 2352.31 949.564 2356.113 955.312 2358.058 964.862 2358.058 970.61 2356.113 980.161 2352.31 985.909 2346.562 987.81 2342.76 987.81 M 2356.113 980.161 2333.165 955.312" fill="none" stroke-width="6.176"/><path d="M 2302.649 622.688 2289.185 616.033 2275.876 602.569 2269.067 589.261 2262.412 569.142 2262.412 535.561 2269.067 515.597 2275.876 502.134 2289.185 488.825 2302.649 482.016 2329.421 482.016 2342.73 488.825 2356.194 502.134 2362.848 515.597 2369.503 535.561 2369.503 569.142 2362.848 589.261 2356.194 602.569 2342.73 616.033 2329.421 622.688 2302.649 622.688 M 2459.623 622.688 2459.623 482.016 M 2412.733 622.688 2506.514 622.688 M 2643.525 602.569 2630.216 616.033 2610.098 622.688 2583.326 622.688 2563.207 616.033 2549.744 602.569 2549.744 589.261 2556.553 575.797 2563.207 569.142 2576.516 562.488 2616.753 549.024 2630.216 542.37 2636.871 535.561 2643.525 522.252 2643.525 502.134 2630.216 488.825 2610.098 482.016 2583.326 482.016 2563.207 488.825 2549.744 502.134" fill="none" stroke-width="21.615"/><path d="M 3213.497 1084.772 3212.071 1087.624 3209.186 1090.509 3206.334 1091.935 3200.597 1091.935 3197.712 1090.509 3194.86 1087.624 3193.401 1084.772 3191.975 1080.461 3191.975 1073.265 3193.401 1068.987 3194.86 1066.102 3197.712 1063.25 3200.597 1061.791 3206.334 1061.791 3209.186 1063.25 3212.071 1066.102 3213.497 1068.987 M 3244.282 1084.772 3242.856 1087.624 3239.971 1090.509 3237.119 1091.935 3231.382 1091.935 3228.497 1090.509 3225.645 1087.624 3224.186 1084.772 3222.76 1080.461 3222.76 1073.265 3224.186 1068.987 3225.645 1066.102 3228.497 1063.25 3231.382 1061.791 3237.119 1061.791 3239.971 1063.25 3242.856 1066.102 3244.282 1068.987 M 3282.706 1091.935 3282.706 1061.791 3295.639 1061.791 3299.95 1063.25 3301.376 1064.676 3302.802 1067.528 3302.802 1071.839 3301.376 1074.724 3299.95 1076.15 3295.639 1077.576 3299.95 1079.035 3301.376 1080.461 3302.802 1083.313 3302.802 1086.198 3301.376 1089.05 3299.95 1090.509 3295.639 1091.935 3282.706 1091.935 M 3282.706 1077.576 3295.639 1077.576 M 3312.066 1091.935 3323.54 1077.576 3323.54 1061.791 M 3335.014 1091.935 3323.54 1077.576 M 3344.277 1076.846 3360.858 1076.846 M 3390.218 1087.624 3387.366 1090.509 3383.055 1091.935 3377.318 1091.935 3373.007 1090.509 3370.122 1087.624 3370.122 1084.772 3371.581 1081.887 3373.007 1080.461 3375.859 1079.035 3384.481 1076.15 3387.366 1074.724 3388.792 1073.265 3390.218 1070.413 3390.218 1066.102 3387.366 1063.25 3383.055 1061.791 3377.318 1061.791 3373.007 1063.25 3370.122 1066.102 M 3422.462 1061.791 3410.955 1091.935 3399.481 1061.791 M 3403.792 1071.839 3418.151 1071.839 M 3475.245 1061.791 3475.245 1091.902 3460.886 1071.839 3482.408 1071.839 M 3493.098 1064.676 3491.672 1063.217 3493.098 1061.791 3494.557 1063.217 3493.098 1064.676 M 3512.443 1091.902 3508.132 1090.476 3505.247 1086.165 3503.821 1079.002 3503.821 1074.691 3505.247 1067.528 3508.132 1063.217 3512.443 1061.791 3515.295 1061.791 3519.606 1063.217 3522.457 1067.528 3523.917 1074.691 3523.917 1079.002 3522.457 1086.165 3519.606 1090.476 3515.295 1091.902 3512.443 1091.902 M 3522.457 1086.165 3505.247 1067.528" fill="none" stroke-width="4.632"/><path d="M 1923.896 658.582 1923.896 661.433 1926.748 667.204 1929.6 670.055 1935.37 672.907 1946.844 672.907 1952.548 670.055 1955.4 667.204 1958.318 661.433 1958.318 655.73 1955.4 649.959 1949.696 641.404 1920.978 612.686 1961.17 612.686" fill="none" stroke-width="9.264"/></g></svg>